<?xml version="1.0" encoding="UTF-8"?>
<svg version="1.1" xmlns="http://www.w3.org/2000/svg" xmlns:xlink="http://www.w3.org/1999/xlink">
    <symbol id="i-vk" viewBox="0 0 28 28" fill="currentColor" xmlns="http://www.w3.org/2000/svg"><path d="M22.717 28H5.283C2.377 28 0 25.623 0 22.717V5.283C0 2.377 2.377 0 5.283 0h17.434C25.623 0 28 2.377 28 5.283v17.434C28 25.623 25.623 28 22.717 28z" /><path fill-rule="evenodd" clip-rule="evenodd" d="M13.31 19.948h1.015s.307-.033.466-.208c.148-.164.137-.458.137-.458s-.02-1.409.614-1.616c.624-.207 1.429 1.364 2.275 1.965.646.458 1.133.36 1.133.36l2.275-.033s1.185-.076.624-1.037c-.042-.076-.328-.71-1.693-2.02-1.429-1.364-1.238-1.145.487-3.503 1.048-1.441 1.46-2.314 1.333-2.697-.127-.36-.889-.262-.889-.262l-2.56.022s-.191-.022-.329.066c-.137.087-.222.284-.222.284s-.402 1.113-.942 2.063c-1.143 1.997-1.598 2.107-1.778 1.976-.434-.284-.328-1.157-.328-1.78 0-1.932.286-2.74-.55-2.947-.275-.066-.487-.12-1.196-.12-.91-.011-1.683 0-2.127.229-.296.142-.519.48-.381.491.17.022.55.11.751.393.265.371.254 1.19.254 1.19s.149 2.282-.349 2.565c-.35.197-.815-.207-1.83-2.02-.52-.927-.91-1.953-.91-1.953s-.075-.197-.212-.295c-.16-.12-.392-.164-.392-.164l-2.434.011s-.37.011-.497.175c-.117.142-.01.448-.01.448s1.904 4.595 4.063 6.91c1.958 2.095 4.201 1.965 4.201 1.965z" fill="#fff"/></symbol>
    <symbol id="i-fb" viewBox="0 0 28 28" fill="currentColor" xmlns="http://www.w3.org/2000/svg"><path d="M22.717 28H5.283C2.377 28 0 25.623 0 22.717V5.283C0 2.377 2.377 0 5.283 0h17.434C25.623 0 28 2.377 28 5.283v17.434C28 25.623 25.623 28 22.717 28z" /><path d="M14.839 23v-8.212h2.655l.393-3.2H14.84V9.544c0-.923.247-1.554 1.53-1.554H18V5.128A21.746 21.746 0 0015.626 5c-2.351 0-3.96 1.495-3.96 4.228v2.36H9v3.2h2.655V23h3.184z" fill="#fff"/></symbol>
    <symbol id="i-inst" viewBox="0 0 28 28" fill="none" xmlns="http://www.w3.org/2000/svg">
        <path id="svg_1" fill="#38ad4a" d="m22.717,28l-17.384,0c-2.956,0 -5.333,-2.377 -5.333,-5.283l0,-17.434c0,-2.906 2.377,-5.283 5.283,-5.283l17.434,0c2.906,0 5.283,2.377 5.283,5.283l0,17.434c0,2.906 -2.377,5.283 -5.283,5.283z"/>
        <path id="svg_2" d="m17.9529,6.44834l-7.90715,0c-2.18349,0 -3.95357,1.69026 -3.95357,3.77529l0,7.55061c0,2.08503 1.77008,3.77531 3.95357,3.77531l7.90715,0c2.18354,0 3.95361,-1.69028 3.95361,-3.77531l0,-7.55061c0,-2.08502 -1.77006,-3.77529 -3.95361,-3.77529z" stroke="white" stroke-width="2" stroke-linecap="round" stroke-linejoin="round" fill="#38ad4a"/>
        <path id="svg_3" d="m17.1623,13.52318c0.09755,0.62844 -0.01483,1.27022 -0.32123,1.83404c-0.3064,0.56389 -0.7912,1.02114 -1.38543,1.30675c-0.59423,0.28561 -1.26768,0.38504 -1.92451,0.28416c-0.65675,-0.10095 -1.26353,-0.39707 -1.73397,-0.84626c-0.47044,-0.44919 -0.78054,-1.02861 -0.88621,-1.65585c-0.10567,-0.62718 -0.00161,-1.27022 0.29748,-1.83767c0.29909,-0.56746 0.77799,-1.03039 1.36846,-1.32294c0.59054,-0.29261 1.26265,-0.39991 1.92068,-0.30675c0.67125,0.09507 1.29271,0.39376 1.77254,0.85194c0.47983,0.45818 0.79261,1.0516 0.89218,1.69259z" stroke="white" stroke-width="2" stroke-linecap="round" stroke-linejoin="round" fill="#38ad4a"/>
        <path id="svg_4" d="m19.19898,9.46851c0,0.22506 -0.19403,0.42472 -0.45528,0.42472c-0.26119,0 -0.45521,-0.19966 -0.45521,-0.42472c0,-0.22506 0.19403,-0.42472 0.45521,-0.42472c0.26125,0 0.45528,0.19966 0.45528,0.42472z" stroke="white" fill="#38ad4a"/>
    </symbol>
</svg>