<svg width="21" height="21" viewBox="0 0 21 21" fill="none" xmlns="http://www.w3.org/2000/svg">
<path d="M7.10802 20.9997C4.77363 13.3076 9.70614 10.4989 9.70614 10.4989C9.36103 14.6036 11.6936 17.8013 11.6936 17.8013C12.5515 17.5425 14.1889 16.3328 14.1889 16.3328C14.1889 17.8013 13.3249 20.9979 13.3249 20.9979C13.3249 20.9979 16.3495 18.6592 17.3016 14.7749C18.2525 10.8906 15.4904 6.99093 15.4904 6.99093C15.6568 9.74019 14.7268 12.4442 12.9045 14.5099C12.9957 14.4047 13.0722 14.2878 13.1309 14.1612C13.4583 13.5064 13.9839 11.8047 13.6761 7.86411C13.2429 2.33256 8.23085 0 8.23085 0C8.66285 3.37033 7.36746 4.14683 4.33306 10.5442C1.29866 16.9404 7.10802 20.9997 7.10802 20.9997Z" fill="white"/>
</svg>
