<?xml version="1.0" encoding="UTF-8"?>
<svg version="1.1" xmlns="http://www.w3.org/2000/svg" xmlns:xlink="http://www.w3.org/1999/xlink">
<defs>

</defs>
<symbol id="i-logo" viewBox="0 0 298 80" fill="none" xmlns="http://www.w3.org/2000/svg"><path d="M0 20.097h2.871v-8.863h10.527V8.696H2.87v-5.7h11.858V.374H0v19.723zM52.76 2.288A7.953 7.953 0 0050.428.874a7.936 7.936 0 00-2.83-.5h-9.528v19.723h2.871v-5.534h6.949l3.62 5.534h3.204l-4.036-6.075c1.248-.54 2.246-1.373 3.079-2.455a7.605 7.605 0 00.998-1.914 7.427 7.427 0 00.333-2.205c0-1.082-.208-2.039-.624-2.913-.458-.873-.999-1.622-1.706-2.247zm-11.86.708h6.533c.832 0 1.54.125 2.164.416.624.291 1.123.666 1.498 1.123.707.79 1.04 1.748 1.04 2.913 0 1.29-.374 2.33-1.165 3.162a4.758 4.758 0 01-1.373.957c-.541.25-1.207.375-1.956.375h-6.74V2.996zM60.083 10.901h10.984v-2.62H60.083V2.995h12.274V.374H57.212v19.723h15.603v-2.622H60.083v-6.574zM90.457 10.693a6.886 6.886 0 00-2.372-1.456 28.08 28.08 0 00-2.83-.749l-4.327-.749c-.499-.083-1.04-.208-1.498-.333a2.52 2.52 0 01-1.165-.665c-.374-.333-.582-.75-.582-1.332 0-.874.333-1.498.999-1.914a7.61 7.61 0 012.205-.707 16.267 16.267 0 012.371-.167c1.124 0 2.206.125 3.246.333 1.04.208 2.039.541 3.037.916l.375.166.999-2.288-.375-.167A17.357 17.357 0 0086.837.416 18.849 18.849 0 0083.05.042c-.873 0-1.872.083-2.995.25a7.426 7.426 0 00-3.08 1.164 4.542 4.542 0 00-1.539 1.54c-.416.624-.624 1.414-.624 2.33 0 .874.166 1.623.54 2.247.334.582.791 1.082 1.332 1.498.5.374 1.082.665 1.665.873a13.17 13.17 0 001.83.5l4.66.873c.625.125 1.29.25 1.873.416.54.125.999.375 1.373.625.291.25.5.54.666.832.166.291.25.707.25 1.248 0 .458-.084.874-.25 1.207-.167.333-.416.624-.708.915-.54.458-1.248.79-2.205.999-.957.208-2.122.333-3.412.333-.957 0-1.997-.125-3.162-.333a16.806 16.806 0 01-3.412-.999l-.374-.166-1.04 2.496.374.167c1.165.499 2.413.873 3.745 1.082 1.331.207 2.621.332 3.91.332 1.416 0 2.83-.125 4.12-.374 1.332-.25 2.455-.75 3.37-1.456a4.675 4.675 0 001.415-1.79c.333-.707.5-1.54.5-2.496 0-.79-.125-1.498-.417-2.08a5.12 5.12 0 00-.998-1.582zM91.997.374v2.622h7.823v17.1h2.87v-17.1h7.864V.374H91.997zM35.117 6.324a9.068 9.068 0 00-2.08-3.203c-.915-.957-2.039-1.706-3.329-2.247a10.874 10.874 0 00-4.244-.832c-1.498 0-2.83.25-4.077.749-1.207.499-2.289 1.165-3.204 2.038a9.667 9.667 0 00-2.33 3.287 10.407 10.407 0 00-.832 4.12c0 1.414.25 2.746.79 3.994.541 1.248 1.248 2.33 2.164 3.245a9.828 9.828 0 003.287 2.164c1.248.541 2.663.79 4.16.79 1.498 0 2.872-.249 4.12-.748 1.248-.5 2.371-1.207 3.245-2.122a9.341 9.341 0 002.206-3.287c.499-1.249.748-2.622.748-4.036a10.294 10.294 0 00-.624-3.912zm-2.746 7.032c-.416.916-.957 1.748-1.664 2.455a6.59 6.59 0 01-2.33 1.498 8.313 8.313 0 01-1.456.375l-4.244-9.071-3.121 6.574c-.458-.54-.832-1.207-1.124-1.914-.374-.915-.54-1.955-.54-3.079 0-1.082.166-2.122.54-3.037.375-.916.874-1.706 1.54-2.372 1.373-1.456 3.204-2.164 5.45-2.164a8.4 8.4 0 012.913.5 6.342 6.342 0 012.33 1.456c.708.666 1.248 1.498 1.665 2.455.416.957.624 2.039.624 3.204.041 1.165-.167 2.205-.583 3.12z" fill="#003526"/><path d="M26.962 17.725c.5-.083.999-.208 1.457-.374.915-.333 1.706-.832 2.33-1.498a7.763 7.763 0 001.664-2.455c.416-.915.624-1.956.624-3.12 0-1.166-.208-2.248-.624-3.205-.416-.957-.957-1.789-1.664-2.454-.25-.25-.541-.458-.832-.666l-4.702 9.986 1.747 3.786zM119.832 4.785a7.369 7.369 0 012.413-1.581c.916-.375 1.914-.541 2.996-.541 1.29 0 2.413.166 3.287.54a9.034 9.034 0 012.414 1.499l.291.25 1.706-1.956-.291-.291a10.066 10.066 0 00-3.246-1.998C128.195.25 126.781 0 125.2 0c-1.498 0-2.913.291-4.161.79a10.993 10.993 0 00-3.287 2.164 10.728 10.728 0 00-2.206 3.204c-.54 1.207-.79 2.538-.79 3.953 0 1.414.25 2.788.79 4.036.541 1.248 1.249 2.33 2.206 3.245a9.423 9.423 0 003.287 2.164c1.248.54 2.663.79 4.161.79 1.664 0 3.079-.25 4.244-.707a9.698 9.698 0 003.162-1.997l.291-.25-1.664-1.997-.333.291a8.637 8.637 0 01-2.455 1.498c-.874.375-1.997.541-3.287.541a8.055 8.055 0 01-3.037-.582c-.916-.375-1.748-.916-2.414-1.623a7.712 7.712 0 01-1.539-2.413c-.375-.916-.541-1.914-.541-3.038 0-1.165.208-2.163.582-3.079.416-.749.957-1.54 1.623-2.205zM151.621 3.12c-.915-.956-2.039-1.705-3.329-2.246a10.872 10.872 0 00-4.244-.832c-1.498 0-2.829.25-4.077.749-1.207.499-2.289 1.165-3.204 2.038a9.664 9.664 0 00-2.33 3.287 10.406 10.406 0 00-.833 4.12c0 1.414.25 2.746.791 3.994.541 1.248 1.248 2.33 2.164 3.245a9.826 9.826 0 003.287 2.164c1.248.541 2.663.79 4.161.79 1.498 0 2.871-.249 4.119-.748a9.545 9.545 0 003.245-2.122 9.352 9.352 0 002.206-3.287c.499-1.249.749-2.622.749-4.036 0-1.373-.25-2.705-.708-3.912-.374-1.206-1.082-2.288-1.997-3.203zm-7.573 14.73c-2.205 0-4.036-.707-5.45-2.164-.666-.665-1.166-1.456-1.54-2.371-.374-.916-.541-1.956-.541-3.08 0-1.081.167-2.121.541-3.037.374-.915.874-1.706 1.54-2.371 1.373-1.457 3.203-2.164 5.45-2.164 1.04 0 1.997.166 2.913.5a6.344 6.344 0 012.33 1.456c.707.665 1.248 1.497 1.664 2.454.416.957.624 2.04.624 3.204 0 1.165-.208 2.206-.624 3.12-.416.916-.957 1.748-1.664 2.456a6.59 6.59 0 01-2.33 1.498c-.874.291-1.873.499-2.913.499zM167.35 10.693L159.985.374h-3.329v19.723h2.622V4.077l7.489 10.444h.999l7.406-10.443v16.019h2.871V.374h-3.329l-7.364 10.32zM195.81 2.58a6.511 6.511 0 00-2.414-1.623 8.114 8.114 0 00-3.079-.583h-9.32v19.723h2.871v-5.534h6.449c1.124 0 2.206-.208 3.163-.624a8.057 8.057 0 002.496-1.706 7.956 7.956 0 001.332-2.122c.332-.79.499-1.665.499-2.622 0-.998-.167-1.913-.541-2.746a8.616 8.616 0 00-1.456-2.163zm-5.243 9.362h-6.699V2.996h6.366c.832 0 1.54.125 2.122.374.583.25 1.082.583 1.456 1.04.749.791 1.082 1.79 1.082 3.038 0 .582-.125 1.165-.291 1.706a4.477 4.477 0 01-2.205 2.413c-.5.25-1.124.375-1.831.375zM202.841.374h-2.871v19.723h15.977v-2.622h-13.106V.375zM220.774 10.901h10.985v-2.62h-10.985V2.995h12.275V.374h-15.146v19.723h15.603v-2.622h-12.732v-6.574zM253.396.374h-3.412l-5.659 7.823-5.866-7.823h-3.371l7.323 9.487-7.697 10.236h3.37l6.241-8.488 6.367 8.488h3.453L246.239 9.86l7.157-9.487zM257.224 16.144c-.624 0-1.123.208-1.498.583-.374.374-.582.915-.582 1.497 0 .625.208 1.124.582 1.498.375.375.874.583 1.498.583s1.123-.208 1.498-.583c.374-.374.582-.873.582-1.498 0-.624-.208-1.123-.582-1.497-.375-.375-.874-.583-1.498-.583zM276.364 2.288a7.962 7.962 0 00-2.33-1.414 7.939 7.939 0 00-2.83-.5h-9.528v19.723h2.871v-5.534h6.948l3.62 5.534h3.204l-4.036-6.075c1.248-.54 2.247-1.373 3.079-2.455a7.62 7.62 0 00.999-1.914 7.427 7.427 0 00.333-2.205c0-1.082-.208-2.039-.624-2.913-.458-.873-.999-1.622-1.706-2.247zm-11.817.708h6.532c.832 0 1.54.125 2.164.416.624.291 1.123.666 1.498 1.123.707.79 1.04 1.748 1.04 2.913 0 1.29-.374 2.33-1.165 3.162a4.75 4.75 0 01-1.373.957c-.541.25-1.207.375-1.956.375h-6.74V2.996zM295.129.374v11.568c0 .915-.125 1.706-.416 2.454a5.44 5.44 0 01-1.123 1.831c-.5.5-1.082.916-1.79 1.207a6.171 6.171 0 01-2.371.458 5.916 5.916 0 01-2.289-.458 5.71 5.71 0 01-1.83-1.248c-.5-.5-.874-1.124-1.166-1.831-.291-.707-.416-1.498-.416-2.413V.374h-2.871v11.318c0 1.248.208 2.413.666 3.495.416 1.082 1.04 1.997 1.789 2.788.749.749 1.623 1.331 2.663 1.789a9.285 9.285 0 003.454.666c1.206 0 2.33-.208 3.328-.624.999-.416 1.873-.957 2.622-1.665.832-.749 1.498-1.706 1.955-2.83.458-1.08.666-2.288.666-3.619V.374h-2.871z" fill="#38AD4A"/><path d="M266.78 51.166h-14.183c-2.364 0-4.298-1.846-4.298-4.103V33.524c0-2.256 1.934-4.103 4.298-4.103h14.183c2.364 0 4.299 1.847 4.299 4.103v13.539c0 2.256-1.935 4.103-4.299 4.103z" fill="#003526"/><path d="M293.897 51.166h-13.538a4.115 4.115 0 01-4.103-4.103V33.524a4.115 4.115 0 014.103-4.103h13.538A4.115 4.115 0 01298 33.524v13.539a4.115 4.115 0 01-4.103 4.103zM266.976 79.123h-13.539c-2.257 0-4.103-1.935-4.103-4.299V60.642c0-2.364 1.846-4.298 4.103-4.298h13.539c2.256 0 4.102 1.934 4.102 4.298v14.184c0 2.363-1.805 4.298-4.102 4.298z" fill="#38AD4A"/><path d="M293.897 79.123h-13.538c-2.257 0-4.103-1.935-4.103-4.299V60.642c0-2.364 1.846-4.298 4.103-4.298h13.538c2.257 0 4.103 1.934 4.103 4.298v14.184c0 2.363-1.846 4.298-4.103 4.298z" fill="#003526"/><path d="M291.74 45.17l-4.631-10.248a.542.542 0 00-.992 0l-4.632 10.248c-.165.388.083.818.497.818h9.262c.372 0 .662-.43.496-.818zM260.372 34.857a1.032 1.032 0 00-1.367 0c-1.485 1.252-2.423 3.236-2.423 5.437 0 2.2.938 4.184 2.423 5.436.39.345.976.345 1.367 0 1.485-1.252 2.423-3.236 2.423-5.436a7.3 7.3 0 00-2.423-5.437zM264.46 67.654c-.237-.356-.198-.712.158-.752.356-.04.317-.316-.039-.554l-.396-.277c-.356-.237-.435-.593-.119-.751.277-.158.198-.396-.237-.514l-.475-.12c-.435-.118-.593-.434-.395-.672.197-.276.039-.435-.396-.395l-.475.04c-.435.039-.712-.198-.593-.515.119-.316-.119-.435-.514-.237l-.435.198c-.396.197-.752.079-.752-.277 0-.356-.277-.356-.554-.04l-.435.277c-.316.317-.672.317-.791 0-.119-.316-.356-.237-.554.158l-.198.435c-.197.396-.514.515-.751.277-.198-.277-.435-.118-.475.317l-.039.474c-.04.436-.317.673-.594.515-.277-.159-.435.04-.316.474l.119.475c.118.435-.08.752-.396.672-.317-.079-.396.198-.158.554l.277.396c.237.356.197.712-.159.751-.356.04-.316.317.04.554l.396.277c.356.237.435.593.118.752-.277.158-.198.395.238.514l.474.119c.435.118.594.435.396.672-.198.237-.04.435.395.396l.475-.04c.435-.04.712.198.593.514-.118.317.119.436.515.238l.435-.198c.395-.198.751-.08.751.277 0 .356.277.356.554.04l.356-.357c.317-.316.673-.316.791 0 .119.317.356.238.554-.158l.198-.435c.198-.396.514-.514.751-.277.238.237.436.119.475-.316l.04-.475c.039-.435.316-.672.593-.514.277.158.435-.04.317-.475l-.119-.475c-.119-.435.079-.751.395-.672.317.079.396-.198.159-.554l-.198-.316zM284.311 62.163h-2.08c-.25 0-.417.167-.417.416v10.194c0 .25.167.416.417.416h2.08c.25 0 .416-.166.416-.416V62.58a.447.447 0 00-.416-.416zM288.014 62.163h-2.08c-.25 0-.416.167-.416.416v10.194c0 .25.166.416.416.416h2.08c.25 0 .416-.166.416-.416V62.58a.417.417 0 00-.416-.416zM291.717 62.163h-2.08c-.25 0-.416.167-.416.416v10.194c0 .25.166.416.416.416h2.08c.25 0 .416-.166.416-.416V62.58a.417.417 0 00-.416-.416z" fill="#fff"/><path d="M15.895 50.68h-.957V41.9h7.697v8.78h-.957v-7.948h-5.825v7.947h.042zM28.71 41.733a4.76 4.76 0 011.913.375c.583.25 1.082.582 1.498.998.416.416.708.874.916 1.415.208.541.29 1.123.29 1.748a5.48 5.48 0 01-.332 1.83c-.208.583-.54 1.04-.999 1.457-.416.416-.915.707-1.456.957a5.297 5.297 0 01-1.83.333c-.666 0-1.29-.125-1.873-.333-.582-.25-1.04-.541-1.456-.957-.416-.416-.75-.874-.957-1.457-.25-.54-.333-1.165-.333-1.789 0-.666.125-1.248.374-1.83.25-.583.583-1.04 1.04-1.457.417-.374.874-.707 1.415-.915a4.173 4.173 0 011.79-.375zm-3.704 4.536c0 .54.083 1.04.291 1.498.167.457.417.832.75 1.164.707.708 1.58 1.04 2.662 1.04.5 0 .999-.082 1.457-.249a3.12 3.12 0 001.165-.749 3.38 3.38 0 00.79-1.206c.208-.458.291-.958.291-1.54 0-.582-.083-1.082-.29-1.581-.209-.458-.458-.874-.833-1.207-.333-.333-.707-.54-1.165-.707a4.05 4.05 0 00-1.415-.25c-1.081 0-1.997.375-2.663 1.082a3.12 3.12 0 00-.748 1.165c-.209.5-.292.999-.292 1.54zM42.233 44.979c0 .416-.084.79-.209 1.123-.166.333-.332.666-.582.916a2.814 2.814 0 01-1.082.748c-.416.167-.874.292-1.373.292h-3.204v2.58h-.957v-8.78h4.161c.5 0 .957.083 1.373.25.416.166.75.416 1.04.707.25.25.5.583.624.957.125.375.209.79.209 1.207zm-3.204 2.288c.374 0 .707-.041.957-.166s.499-.291.665-.5c.208-.208.333-.457.458-.707.125-.291.166-.54.166-.874 0-.624-.208-1.165-.582-1.54a1.926 1.926 0 00-.749-.54 2.783 2.783 0 00-1.082-.208H35.7v4.535h3.329zM42.65 41.9h8.238v.832h-3.662v7.947h-.915v-7.947h-3.62V41.9h-.042zM55.839 41.9l3.911 8.78h-1.04l-.79-1.748h-5.618l-.79 1.747h-.957l3.91-8.78h1.374zm-3.204 6.241h4.952l-2.33-5.41h-.292l-2.33 5.41zM69.486 41.9v8.78h-.957v-7.948h-4.16l-.874 6.2a2.383 2.383 0 01-.666 1.373c-.333.333-.79.457-1.332.457-.25 0-.416 0-.582-.041-.167-.042-.291-.042-.458-.125l.166-.707c.209.041.417.083.583.083.458 0 .79-.125 1.04-.416.208-.25.333-.583.416-1.04l.916-6.658h5.908v.042zM80.845 41.733a4.76 4.76 0 011.914.375c.583.25 1.082.582 1.498.998.416.416.707.874.915 1.415.208.541.292 1.123.292 1.748 0 .624-.125 1.248-.333 1.83-.208.583-.541 1.04-.999 1.457-.416.416-.915.707-1.456.957a5.297 5.297 0 01-3.703 0c-.583-.25-1.04-.541-1.457-.957-.416-.416-.749-.874-.957-1.457-.25-.54-.332-1.165-.332-1.789 0-.666.124-1.248.374-1.83.25-.583.583-1.04 1.04-1.457.416-.374.874-.707 1.415-.915.5-.25 1.123-.375 1.79-.375zm-3.703 4.536c0 .54.083 1.04.291 1.498.167.457.416.832.75 1.164.706.708 1.58 1.04 2.662 1.04.5 0 .999-.082 1.456-.249a3.119 3.119 0 001.165-.749c.333-.333.625-.749.791-1.206.208-.458.291-.958.291-1.54 0-.582-.083-1.082-.291-1.581-.208-.458-.458-.874-.832-1.207-.333-.333-.707-.54-1.165-.707a4.05 4.05 0 00-1.415-.25c-1.082 0-1.997.375-2.663 1.082a3.12 3.12 0 00-.749 1.165c-.208.5-.291.999-.291 1.54zM100.609 41.9v8.78h-.957v-7.948h-4.16l-.874 6.2a2.383 2.383 0 01-.666 1.373c-.333.333-.79.457-1.332.457-.25 0-.416 0-.582-.041-.167-.042-.291-.042-.458-.125l.166-.707c.209.041.417.083.583.083.458 0 .79-.125 1.04-.416.208-.25.333-.583.416-1.04l.916-6.658h5.908v.042zM102.357 41.9h6.658v.832h-5.701v2.83h5.118v.832h-5.118v3.453h5.909v.832h-6.866V41.9zM110.97 46.269c0 .54.083 1.04.25 1.498.166.457.416.832.749 1.164.333.333.749.625 1.206.791.458.208.957.291 1.498.291.624 0 1.165-.083 1.623-.29.458-.167.832-.417 1.207-.75l.541.624a4.498 4.498 0 01-1.415.874c-.541.208-1.165.291-1.914.291-.666 0-1.29-.124-1.873-.333-.582-.25-1.04-.54-1.456-.957a4.524 4.524 0 01-.998-1.456c-.25-.54-.333-1.165-.333-1.789 0-.624.125-1.207.374-1.748.25-.54.583-1.04.999-1.414a4.218 4.218 0 011.456-.957c.541-.25 1.165-.375 1.872-.375.708 0 1.332.084 1.873.292.541.208 1.04.499 1.456.873l-.541.624a4.163 4.163 0 00-1.165-.707c-.416-.166-.957-.25-1.581-.25-.541 0-.999.084-1.456.292-.458.166-.832.457-1.207.79a3.837 3.837 0 00-.79 1.165c-.25.375-.375.874-.375 1.457zM123.453 41.733c.707 0 1.331.125 1.914.375.582.25 1.081.582 1.497.998.417.416.708.874.916 1.415.208.541.291 1.123.291 1.748 0 .624-.125 1.248-.333 1.83-.208.583-.541 1.04-.998 1.457-.416.416-.916.707-1.457.957a5.293 5.293 0 01-1.83.333 5.54 5.54 0 01-1.873-.333c-.582-.25-1.04-.541-1.456-.957-.416-.416-.749-.874-.957-1.457-.25-.54-.333-1.165-.333-1.789 0-.666.125-1.248.374-1.83.25-.583.583-1.04 1.041-1.457.416-.374.873-.707 1.414-.915.5-.25 1.124-.375 1.79-.375zm-3.704 4.536c0 .54.084 1.04.292 1.498.166.457.416.832.749 1.164.707.708 1.581 1.04 2.663 1.04.499 0 .998-.082 1.456-.249a3.118 3.118 0 001.165-.749 3.37 3.37 0 00.79-1.206c.208-.458.292-.958.292-1.54 0-.582-.084-1.082-.292-1.581-.208-.458-.457-.874-.832-1.207-.333-.333-.707-.54-1.165-.707a4.045 4.045 0 00-1.414-.25c-1.082 0-1.998.375-2.663 1.082a3.114 3.114 0 00-.749 1.165c-.208.5-.292.999-.292 1.54zM132.149 50.013c.208 0 .458 0 .707-.041.25-.042.5-.084.708-.125.208-.083.457-.166.665-.25.208-.125.375-.25.541-.416.167-.166.291-.333.375-.54a2.02 2.02 0 00.124-.75c0-.208-.041-.416-.083-.624-.083-.208-.166-.416-.291-.582-.125-.208-.333-.333-.624-.458-.25-.083-.541-.166-.832-.166h-3.121v-.791h2.871c.208 0 .416-.042.624-.125.208-.083.375-.166.499-.333.209-.208.333-.499.333-.873 0-.25-.041-.417-.124-.583-.084-.166-.209-.291-.333-.416-.25-.208-.624-.333-.999-.416-.416-.042-.79-.083-1.165-.083-.499 0-.999.041-1.456.124a8.397 8.397 0 00-1.373.375l-.25-.707c.416-.208.874-.333 1.415-.458s1.123-.166 1.747-.166c.541 0 1.04.041 1.581.166.541.125.957.333 1.29.666.167.166.291.374.416.582.125.25.167.5.167.79 0 .209 0 .375-.042.542a1.527 1.527 0 01-.208.457c-.166.25-.374.416-.666.583v.083c.208.083.375.166.5.25.166.083.291.208.416.333.208.25.374.499.457.748.084.292.167.541.167.833 0 .416-.083.832-.291 1.206-.208.416-.458.75-.791.999-.291.25-.666.416-1.123.582-.458.167-1.082.209-1.831.209a9.618 9.618 0 01-2.039-.209 6.854 6.854 0 01-1.623-.582l.292-.749c.582.25 1.123.416 1.664.5.499.374 1.082.415 1.706.415zM142.134 41.9l3.911 8.78h-1.04l-.79-1.748h-5.617l-.749 1.747h-.957l3.911-8.78h1.331zm-3.162 6.241h4.951l-2.33-5.41h-.291l-2.33 5.41zM148.335 50.68h-.957V41.9h6.699v.832h-5.742v7.947zM158.986 41.733c.707 0 1.331.125 1.914.375.582.25 1.082.582 1.498.998.416.416.707.874.915 1.415.208.541.291 1.123.291 1.748 0 .624-.125 1.248-.333 1.83-.208.583-.541 1.04-.998 1.457-.416.416-.916.707-1.456.957-.541.25-1.166.333-1.831.333a5.54 5.54 0 01-1.873-.333c-.582-.25-1.04-.541-1.456-.957-.416-.416-.749-.874-.957-1.457-.25-.54-.333-1.165-.333-1.789 0-.666.125-1.248.375-1.83a4.051 4.051 0 011.04-1.457c.416-.374.874-.707 1.415-.915a4.168 4.168 0 011.789-.375zm-3.703 4.536c0 .54.083 1.04.291 1.498.166.457.416.832.749 1.164.707.708 1.581 1.04 2.663 1.04.499 0 .998-.082 1.456-.249a3.118 3.118 0 001.165-.749c.333-.333.624-.749.791-1.206.208-.458.291-.958.291-1.54 0-.582-.083-1.082-.291-1.581-.208-.458-.458-.874-.833-1.207-.332-.333-.707-.54-1.165-.707a4.045 4.045 0 00-1.414-.25c-1.082 0-1.997.375-2.663 1.082a3.114 3.114 0 00-.749 1.165c-.208.5-.291.999-.291 1.54zM163.729 41.9h8.239v.832h-3.662v7.947h-.915v-7.947h-3.62V41.9h-.042zM176.753 41.733c.708 0 1.332.125 1.914.375.583.25 1.082.582 1.498.998.416.416.708.874.916 1.415.208.541.291 1.123.291 1.748 0 .624-.125 1.248-.333 1.83-.208.583-.541 1.04-.999 1.457-.416.416-.915.707-1.456.957a5.295 5.295 0 01-1.831.333c-.665 0-1.29-.125-1.872-.333-.583-.25-1.04-.541-1.456-.957-.416-.416-.749-.874-.957-1.457-.25-.54-.333-1.165-.333-1.789 0-.666.125-1.248.374-1.83.25-.583.583-1.04 1.04-1.457.417-.374.874-.707 1.415-.915.499-.25 1.082-.375 1.789-.375zm-3.744 4.536c0 .54.083 1.04.291 1.498.166.457.416.832.749 1.164.707.708 1.581 1.04 2.663 1.04.499 0 .998-.082 1.456-.249a3.118 3.118 0 001.165-.749c.333-.333.624-.749.791-1.206.208-.458.291-.958.291-1.54 0-.582-.083-1.082-.291-1.581-.208-.458-.458-.874-.833-1.207-.332-.333-.707-.54-1.165-.707a4.045 4.045 0 00-1.414-.25c-1.082 0-1.998.375-2.663 1.082a3.114 3.114 0 00-.749 1.165c-.167.5-.291.999-.291 1.54zM182.786 50.68V41.9h4.452c.458 0 .832.041 1.165.166.333.125.583.291.832.5.167.208.333.416.417.624.083.25.166.499.166.79 0 .375-.083.708-.25 1.04-.166.25-.374.5-.665.666v.083c.208.084.374.208.54.375l.458.458c.333.457.458.957.458 1.497 0 .333-.083.666-.208.957a2.669 2.669 0 01-.541.791c-.25.25-.583.416-.915.582a3.668 3.668 0 01-1.207.209h-4.702v.041zm6.075-6.575c0-.416-.125-.749-.416-1.04-.125-.125-.291-.208-.499-.291-.208-.084-.458-.125-.791-.125h-3.412v2.83h3.703c.5 0 .832-.126 1.082-.417.208-.25.333-.582.333-.957zm.541 3.994c0-.499-.125-.915-.375-1.206-.332-.416-.832-.624-1.498-.624h-3.786v3.62h3.703c.666 0 1.165-.208 1.498-.625.333-.332.458-.707.458-1.165zM192.855 41.9v3.703h1.706c.333 0 .625-.083.833-.208.166-.083.332-.25.499-.5l1.165-1.997c.125-.208.25-.374.416-.54.125-.167.291-.292.499-.375a2.572 2.572 0 011.04-.208h.292c.083 0 .208 0 .291.041l-.042.75h-.208c-.166 0-.333 0-.499.041a.704.704 0 00-.416.125c-.208.125-.375.291-.541.582l-1.123 1.873c-.084.125-.167.25-.25.333-.083.124-.208.208-.333.332l3.454 4.827h-1.124l-3.079-4.41a5.092 5.092 0 01-.79.083h-1.79v4.327h-.957V41.9h.957zM201.01 41.9h6.658v.832h-5.742v2.83h5.118v.832h-5.118v3.453h5.908v.832h-6.865V41.9h.041zM15.853 65.409l6.033-7.615h.957v8.78h-.874V59l-6.075 7.614h-.957v-8.78h.916v7.574zM37.906 57.794v7.989h.998v2.705h-.666l-.208-1.873h-7.697l-.167 1.873h-.707v-2.663h.25c.457 0 .79-.208 1.082-.624.124-.208.25-.458.332-.75.083-.29.167-.582.208-.915l.75-5.742h5.825zm-5.035.832l-.708 5.201c-.041.416-.166.791-.29 1.124-.167.333-.334.624-.542.832h5.66v-7.157h-4.12zM40.277 57.794h6.658v.832h-5.7v2.83h5.076v.832h-5.118v3.453h5.95v.833h-6.866v-8.78zM56.172 60.915c0 .416-.083.79-.208 1.123-.166.333-.333.666-.583.916a2.815 2.815 0 01-1.081.749c-.416.166-.874.29-1.373.29h-3.204v2.58h-.957v-8.779h4.16c.5 0 .957.083 1.374.25.416.166.748.416 1.04.707.25.25.5.583.624.957.125.375.208.79.208 1.207zm-3.204 2.288c.375 0 .707-.041.957-.166s.5-.291.666-.5c.208-.207.333-.457.457-.707.125-.291.167-.54.167-.874 0-.624-.208-1.165-.583-1.54a1.926 1.926 0 00-.748-.54 2.784 2.784 0 00-1.082-.208h-3.163v4.535h3.33zM57.587 57.794h6.657v.832h-5.7v2.83h5.118v.832h-5.118v3.453h5.908v.833h-6.865v-8.78zM66.032 66.615v-8.78h4.452c.458 0 .833.042 1.165.167.333.125.583.291.832.5.167.208.333.416.417.624.083.25.166.499.166.79 0 .375-.083.708-.25 1.04-.166.25-.374.5-.665.666v.083c.208.084.374.208.54.375l.458.458c.333.457.458.957.458 1.498 0 .332-.083.665-.208.957a2.663 2.663 0 01-.541.79c-.25.25-.582.416-.915.583a3.665 3.665 0 01-1.207.208h-4.702v.041zm6.034-6.574c0-.416-.125-.749-.417-1.04-.124-.125-.29-.208-.499-.291-.208-.084-.458-.125-.79-.125h-3.412v2.83h3.703c.5 0 .832-.126 1.082-.417.25-.25.332-.582.332-.957zm.582 3.995c0-.5-.125-.916-.374-1.207-.333-.416-.833-.624-1.498-.624h-3.787v3.62h3.703c.666 0 1.165-.208 1.498-.624.291-.333.458-.75.458-1.165zM79.264 57.67a4.76 4.76 0 011.914.374 4.72 4.72 0 011.498.998c.416.416.707.874.915 1.415.208.541.292 1.123.292 1.748 0 .624-.125 1.248-.333 1.83-.208.583-.541 1.04-.999 1.457-.416.416-.915.707-1.456.957a5.297 5.297 0 01-1.831.333c-.666 0-1.29-.125-1.872-.333-.583-.25-1.04-.541-1.457-.957-.416-.416-.749-.874-.957-1.457-.25-.54-.332-1.165-.332-1.789 0-.666.124-1.248.374-1.83.25-.583.583-1.04 1.04-1.457.416-.374.874-.707 1.415-.915.5-.291 1.123-.375 1.789-.375zm-3.703 4.535c0 .54.083 1.04.291 1.498.167.457.416.832.75 1.165.706.707 1.58 1.04 2.662 1.04.5 0 .999-.083 1.456-.25a3.12 3.12 0 001.165-.749 3.38 3.38 0 00.79-1.207c.209-.457.292-.956.292-1.539 0-.582-.083-1.082-.291-1.581-.208-.458-.458-.874-.832-1.207-.333-.333-.708-.54-1.165-.707a4.052 4.052 0 00-1.415-.25c-1.082 0-1.997.375-2.663 1.082a3.119 3.119 0 00-.749 1.165c-.208.5-.291.999-.291 1.54zM89.625 57.67a4.76 4.76 0 011.914.374c.583.25 1.082.582 1.498.998.416.416.708.874.916 1.415.208.541.29 1.123.29 1.748 0 .624-.124 1.248-.332 1.83-.208.583-.54 1.04-.999 1.457-.416.416-.915.707-1.456.957a5.298 5.298 0 01-1.83.333c-.666 0-1.29-.125-1.873-.333-.582-.25-1.04-.541-1.456-.957-.416-.416-.75-.874-.957-1.457-.25-.54-.333-1.165-.333-1.789 0-.666.125-1.248.374-1.83.25-.583.583-1.04 1.04-1.457.417-.374.874-.707 1.415-.915.5-.291 1.124-.375 1.79-.375zm-3.703 4.535c0 .54.083 1.04.291 1.498.167.457.417.832.75 1.165.707.707 1.58 1.04 2.662 1.04.5 0 .999-.083 1.457-.25a3.12 3.12 0 001.165-.749 3.38 3.38 0 00.79-1.207c.208-.457.291-.956.291-1.539 0-.582-.083-1.082-.29-1.581-.209-.458-.458-.874-.833-1.207-.333-.333-.707-.54-1.165-.707a4.052 4.052 0 00-1.415-.25c-1.081 0-1.997.375-2.663 1.082a3.12 3.12 0 00-.749 1.165c-.208.5-.29.999-.29 1.54zM99.985 60.665c.541 0 .998.083 1.414.291.416.167.749.416.999.75.208.249.416.54.499.873.125.333.167.707.167 1.082 0 .374-.083.749-.208 1.082-.125.333-.292.666-.541.915a2.67 2.67 0 01-1.04.75c-.416.166-.833.249-1.374.249h-4.327v-8.78h6.45v.79h-5.368v2.04h3.329v-.042zm-3.329 5.118h3.37c.416 0 .749-.042 1.041-.166.249-.125.499-.292.665-.5.333-.416.5-.874.5-1.456 0-.583-.167-1.04-.458-1.415a1.793 1.793 0 00-.707-.54c-.292-.126-.666-.167-1.082-.167h-3.329v4.244zM112.052 60.915c0 .416-.083.79-.208 1.123-.167.333-.333.666-.583.916a2.806 2.806 0 01-1.082.749c-.416.166-.873.29-1.373.29h-3.204v2.58h-.956v-8.779h4.16c.5 0 .957.083 1.373.25.417.166.749.416 1.041.707.249.25.499.583.624.957.125.375.208.79.208 1.207zm-3.162 2.288c.374 0 .707-.041.957-.166.249-.125.499-.291.665-.5.208-.207.333-.457.458-.707.125-.291.166-.54.166-.874 0-.624-.208-1.165-.582-1.54a1.928 1.928 0 00-.749-.54 2.784 2.784 0 00-1.082-.208h-3.162v4.535h3.329zM117.211 57.794l3.912 8.78h-1.041l-.79-1.748h-5.576l-.79 1.748h-.957l3.911-8.78h1.331zm-3.162 6.242h4.952l-2.33-5.41h-.292l-2.33 5.41zM126.781 60.665c.541 0 .999.083 1.415.291.416.167.749.416.999.75.208.249.416.54.499.873.125.333.166.707.166 1.082 0 .374-.083.749-.208 1.082-.124.333-.291.666-.541.915a2.67 2.67 0 01-1.04.75c-.416.166-.832.249-1.373.249h-4.244v-8.78h6.449v.79h-5.492v2.04h3.37v-.042zm-3.37 5.118h3.37c.416 0 .749-.042 1.041-.166.249-.125.499-.292.665-.5.333-.416.5-.874.5-1.456 0-.583-.167-1.04-.458-1.415a1.793 1.793 0 00-.707-.54c-.292-.126-.666-.167-1.082-.167h-3.287v4.244h-.042zM135.519 57.67c.707 0 1.331.124 1.914.374.582.25 1.082.582 1.498.998.416.416.707.874.915 1.415.208.541.291 1.123.291 1.748a5.48 5.48 0 01-.332 1.83c-.208.583-.541 1.04-.999 1.457-.416.416-.915.707-1.456.957-.541.25-1.165.333-1.831.333a5.53 5.53 0 01-1.872-.333c-.583-.25-1.041-.541-1.457-.957-.416-.416-.749-.874-.957-1.457-.249-.54-.333-1.165-.333-1.789 0-.666.125-1.248.375-1.83.25-.583.582-1.04 1.04-1.457.416-.374.874-.707 1.415-.915.541-.291 1.123-.375 1.789-.375zm-3.703 4.535c0 .54.083 1.04.291 1.498.166.457.416.832.749 1.165.707.707 1.581 1.04 2.663 1.04a4.28 4.28 0 001.456-.25 3.118 3.118 0 001.165-.749c.333-.333.624-.749.791-1.207.208-.457.291-.956.291-1.539 0-.582-.083-1.082-.291-1.581-.208-.458-.458-.874-.832-1.207-.333-.333-.708-.54-1.165-.707a4.057 4.057 0 00-1.415-.25c-1.082 0-1.997.375-2.663 1.082a3.113 3.113 0 00-.749 1.165c-.208.5-.291.999-.291 1.54zM140.263 57.794h8.238v.832h-3.661v7.948h-.957v-7.948h-3.62v-.832zM150.789 57.794v3.703h1.706c.333 0 .624-.083.832-.208.167-.083.333-.25.499-.5l1.165-1.996c.125-.208.25-.375.417-.541a1.13 1.13 0 01.499-.375 2.566 2.566 0 011.04-.208h.291c.084 0 .208 0 .292.042l-.042.749h-.208c-.166 0-.333 0-.499.041a.7.7 0 00-.416.125c-.208.125-.375.292-.541.583L154.7 61.08c-.083.125-.166.25-.249.333-.084.125-.208.208-.333.333l3.453 4.826h-1.123l-3.079-4.41c-.25.042-.541.083-.791.083h-1.789v4.327h-.957v-8.779h.957zM158.944 57.794h6.658v.832h-5.701v2.83h5.118v.832h-5.118v3.453h5.909v.833h-6.866v-8.78z" fill="#003526"/><path d="M241.704 30.832l-19.057 19.057a4.252 4.252 0 00-1.248 2.995V75.77c0 .957-.749 1.706-1.706 1.706H2.954a1.687 1.687 0 01-1.706-1.706V32.538c0-.957.75-1.706 1.706-1.706h238.75zm.166-1.248H2.954A2.966 2.966 0 000 32.538v43.231a2.966 2.966 0 002.954 2.954h216.739a2.965 2.965 0 002.954-2.954V52.884c0-.79.291-1.54.874-2.08l19.181-19.182c.749-.79.208-2.038-.832-2.038z" fill="#38AD4A"/></symbol>
<symbol id="i-toggler" viewBox="0 0 35 23" fill="none" xmlns="http://www.w3.org/2000/svg"><rect width="35" height="5" rx="2.5" fill="#38AD4A"/><rect y="9" width="35" height="5" rx="2.5" fill="#38AD4A"/><rect y="18" width="35" height="5" rx="2.5" fill="#38AD4A"/></symbol>
<symbol id="i-search" viewBox="0 0 24 24" fill="none" xmlns="http://www.w3.org/2000/svg"><path fill-rule="evenodd" clip-rule="evenodd" d="M14.965 14.255h.79l4.99 5-1.49 1.49-5-4.99v-.79l-.27-.28a6.471 6.471 0 01-4.23 1.57 6.5 6.5 0 116.5-6.5c0 1.61-.59 3.09-1.57 4.23l.28.27zm-9.71-4.5c0 2.49 2.01 4.5 4.5 4.5s4.5-2.01 4.5-4.5-2.01-4.5-4.5-4.5-4.5 2.01-4.5 4.5z" fill="#000" fill-opacity=".12"/></symbol>
<symbol id="i-vk" viewBox="0 0 28 28" fill="currentColor" xmlns="http://www.w3.org/2000/svg"><path d="M22.717 28H5.283C2.377 28 0 25.623 0 22.717V5.283C0 2.377 2.377 0 5.283 0h17.434C25.623 0 28 2.377 28 5.283v17.434C28 25.623 25.623 28 22.717 28z" /><path fill-rule="evenodd" clip-rule="evenodd" d="M13.31 19.948h1.015s.307-.033.466-.208c.148-.164.137-.458.137-.458s-.02-1.409.614-1.616c.624-.207 1.429 1.364 2.275 1.965.646.458 1.133.36 1.133.36l2.275-.033s1.185-.076.624-1.037c-.042-.076-.328-.71-1.693-2.02-1.429-1.364-1.238-1.145.487-3.503 1.048-1.441 1.46-2.314 1.333-2.697-.127-.36-.889-.262-.889-.262l-2.56.022s-.191-.022-.329.066c-.137.087-.222.284-.222.284s-.402 1.113-.942 2.063c-1.143 1.997-1.598 2.107-1.778 1.976-.434-.284-.328-1.157-.328-1.78 0-1.932.286-2.74-.55-2.947-.275-.066-.487-.12-1.196-.12-.91-.011-1.683 0-2.127.229-.296.142-.519.48-.381.491.17.022.55.11.751.393.265.371.254 1.19.254 1.19s.149 2.282-.349 2.565c-.35.197-.815-.207-1.83-2.02-.52-.927-.91-1.953-.91-1.953s-.075-.197-.212-.295c-.16-.12-.392-.164-.392-.164l-2.434.011s-.37.011-.497.175c-.117.142-.01.448-.01.448s1.904 4.595 4.063 6.91c1.958 2.095 4.201 1.965 4.201 1.965z" fill="#fff"/></symbol>
<symbol id="i-wapp" viewBox="0 0 28 28" fill="currentColor" xmlns="http://www.w3.org/2000/svg">
    <path d="M22.717 28H5.28302C2.37736 28 0 25.6226 0 22.717V5.28302C0 2.37736 2.37736 0 5.28302 0H22.717C25.6226 0 28 2.37736 28 5.28302V22.717C28 25.6226 25.6226 28 22.717 28Z" fill="currentColor"/>
    <path fill-rule="evenodd" clip-rule="evenodd" d="M14.0936 6C9.78773 6 6.28377 9.49159 6.28377 13.8098C6.28377 15.2904 6.69092 16.6599 7.40652 17.8444L6 22.0269L10.3183 20.645C11.441 21.2619 12.7241 21.6197 14.0936 21.6197C18.3996 21.6197 21.9035 18.1281 21.9035 13.8098C21.8912 9.49159 18.3996 6 14.0936 6ZM14.0936 20.2996C12.7735 20.2996 11.5397 19.9048 10.5157 19.2262L8.02341 20.0281L8.83771 17.6099C8.06042 16.5365 7.60392 15.2164 7.60392 13.7975C7.60392 10.2195 10.5157 7.29548 14.106 7.29548C17.684 7.29548 20.608 10.2072 20.608 13.7975C20.5834 17.3878 17.6716 20.2996 14.0936 20.2996ZM17.7456 15.5742C17.5482 15.4631 16.5859 14.9449 16.4132 14.8709C16.2281 14.7969 16.1047 14.7599 15.9567 14.9573C15.8209 15.1547 15.4138 15.5865 15.3028 15.7099C15.1794 15.8333 15.0683 15.8456 14.8709 15.7469C14.6735 15.6359 14.0443 15.4015 13.304 14.6982C12.7365 14.143 12.354 13.4767 12.243 13.2793C12.1319 13.0696 12.243 12.9709 12.3417 12.8722C12.4404 12.7858 12.5514 12.6501 12.6501 12.5391C12.7488 12.428 12.7858 12.3417 12.8599 12.2183C12.9339 12.0826 12.8969 11.9715 12.8599 11.8728C12.8105 11.7741 12.4527 10.7747 12.3047 10.3676C12.1566 9.96044 11.9839 10.0221 11.8728 10.0221C11.7618 10.0221 11.6261 9.99746 11.4904 9.99746C11.3546 9.99746 11.1449 10.0345 10.9475 10.2319C10.7624 10.4293 10.2196 10.8858 10.1825 11.8728C10.1455 12.8475 10.8241 13.8222 10.9228 13.9579C11.0215 14.0936 12.2183 16.2157 14.217 17.0917C16.2158 17.9677 16.2281 17.6963 16.5859 17.684C16.956 17.6593 17.7827 17.2398 17.9677 16.7833C18.1528 16.3268 18.1651 15.9196 18.1158 15.8456C18.0788 15.7469 17.9431 15.6852 17.7456 15.5742Z" fill="white"/>
</symbol>
<symbol id="i-twitter" viewBox="0 0 28 28" fill="currentColor" xmlns="http://www.w3.org/2000/svg">
    <path d="M22.717 28H5.28302C2.37736 28 0 25.6226 0 22.717V5.28302C0 2.37736 2.37736 0 5.28302 0H22.717C25.6226 0 28 2.37736 28 5.28302V22.717C28 25.6226 25.6226 28 22.717 28Z" fill="currentColor"/>
    <path d="M22 8.5348C21.4516 8.79824 20.8602 8.97005 20.2366 9.05022C20.871 8.64934 21.3548 7.99647 21.5914 7.24053C21 7.6185 20.3333 7.89339 19.6344 8.03084C19.0753 7.38943 18.2688 7 17.3871 7C15.6882 7 14.3118 8.46608 14.3118 10.2758C14.3118 10.5278 14.3441 10.7797 14.3871 11.0203C11.828 10.8828 9.55913 9.57709 8.04301 7.59559C7.77419 8.07665 7.62365 8.63788 7.62365 9.24493C7.62365 10.3789 8.17204 11.3868 8.98925 11.9709C8.48387 11.9595 8.01075 11.8106 7.5914 11.5586C7.5914 11.57 7.5914 11.5815 7.5914 11.6044C7.5914 13.1965 8.65591 14.5137 10.0645 14.8229C9.80645 14.9031 9.53763 14.9375 9.25806 14.9375C9.06452 14.9375 8.87097 14.9145 8.67742 14.8802C9.06451 16.1859 10.2043 17.1251 11.5484 17.1595C10.4946 18.0414 9.17204 18.5683 7.73117 18.5683C7.48386 18.5683 7.23656 18.5568 7 18.5225C8.36559 19.4502 9.97848 20 11.7204 20C17.3871 20 20.4731 15.0062 20.4731 10.6766C20.4731 10.5392 20.4731 10.3903 20.4624 10.2529C21.0645 9.77181 21.5806 9.19912 22 8.5348Z" fill="white"/>
</symbol>
<symbol id="i-tube" viewBox="0 0 28 28" fill="currentColor" xmlns="http://www.w3.org/2000/svg"><path d="M22.717 28H5.283C2.377 28 0 25.623 0 22.717V5.283C0 2.377 2.377 0 5.283 0h17.434C25.623 0 28 2.377 28 5.283v17.434C28 25.623 25.623 28 22.717 28z" /><path d="M20.745 10.602a1.863 1.863 0 00-1.62-1.407C17.27 9 15.384 9 13.508 9c-1.877 0-3.754 0-5.62.195a1.863 1.863 0 00-1.619 1.407C6.011 11.69 6 12.88 6 14c0 1.12 0 2.31.257 3.398.183.76.837 1.325 1.62 1.407C9.732 19 11.619 19 13.496 19c1.876 0 3.753 0 5.619-.195a1.863 1.863 0 001.62-1.407c.257-1.088.257-2.279.257-3.398.021-1.13.021-2.31-.247-3.398zM11.94 15.95v-3.984l3.968 1.992-3.968 1.992z" fill="#fff"/></symbol>
<symbol id="i-fb" viewBox="0 0 28 28" fill="currentColor" xmlns="http://www.w3.org/2000/svg"><path d="M22.717 28H5.283C2.377 28 0 25.623 0 22.717V5.283C0 2.377 2.377 0 5.283 0h17.434C25.623 0 28 2.377 28 5.283v17.434C28 25.623 25.623 28 22.717 28z" /><path d="M14.839 23v-8.212h2.655l.393-3.2H14.84V9.544c0-.923.247-1.554 1.53-1.554H18V5.128A21.746 21.746 0 0015.626 5c-2.351 0-3.96 1.495-3.96 4.228v2.36H9v3.2h2.655V23h3.184z" fill="#fff"/></symbol>
<symbol id="i-arrowSwitch" viewBox="0 0 17 9" fill="none" xmlns="http://www.w3.org/2000/svg"><path d="M16 1L8.5 8L1 1" stroke="currentColor" stroke-linecap="round" stroke-linejoin="round"/></symbol>
<symbol id="i-xCircle" viewBox="0 0 41 41" fill="none" xmlns="http://www.w3.org/2000/svg"><path d="M20.5003 35.1428C28.5873 35.1428 35.1431 28.587 35.1431 20.5C35.1431 12.4129 28.5873 5.85712 20.5003 5.85712C12.4133 5.85712 5.85742 12.4129 5.85742 20.5C5.85742 28.587 12.4133 35.1428 20.5003 35.1428Z" stroke="black" stroke-opacity="0.38" stroke-linecap="round" stroke-linejoin="round"/>
    <path d="M24.8931 16.1071L16.1074 24.8928" stroke="black" stroke-opacity="0.38" stroke-linecap="round" stroke-linejoin="round"/>
    <path d="M16.1074 16.1071L24.8931 24.8928" stroke="black" stroke-opacity="0.38" stroke-linecap="round" stroke-linejoin="round"/>
</symbol>
<symbol id="i-zen" viewBox="0 0 29 29" fill="currentColor" xmlns="http://www.w3.org/2000/svg">
    <g clip-path="url(#clip0)">
        <path fill-rule="evenodd" clip-rule="evenodd" d="M14.3401 0C8.36328 0.000568121 4.22188 0.0204525 2.09606 2.09637C0.0202591 4.2217 0.000370613 8.5576 0.000370613 14.34C6.42101 14.1462 9.35714 13.9854 11.6989 11.6987C13.9855 9.35697 14.1463 6.4209 14.3401 0ZM2.0957 26.9038C0.0198885 24.7785 0 20.4426 0 14.6603C6.42065 14.854 9.35678 15.0148 11.6985 17.3015C13.9851 19.6433 14.1459 22.5793 14.3397 28.9997C8.36292 28.9997 4.22151 28.9804 2.0957 26.9038ZM14.6602 28.9997C14.854 22.5793 15.0148 19.6433 17.3014 17.3015C19.6431 15.0148 22.5793 14.854 28.9999 14.6603C28.9993 20.4426 28.9794 24.7785 26.9036 26.9038C24.7778 28.9804 20.6371 28.9997 14.6602 28.9997ZM14.6602 0C14.854 6.4209 15.0148 9.35697 17.3014 11.6987C19.6431 13.9854 22.5793 14.1462 28.9999 14.34C28.9993 8.5576 28.9794 4.2217 26.9036 2.09637C24.7778 0.0204525 20.6371 0.000568121 14.6602 0Z" fill="currentColor"/>
        <path fill-rule="evenodd" clip-rule="evenodd" d="M17.3014 17.3015C15.0148 19.6433 14.854 22.5793 14.6602 28.9997C20.6371 28.9997 24.7778 28.9804 26.9036 26.9038C28.9794 24.7785 28.9993 20.4426 28.9999 14.6603C22.5793 14.854 19.6431 15.0148 17.3014 17.3015ZM0 14.6603C0 20.4426 0.0198885 24.7785 2.0957 26.9038C4.22151 28.9804 8.36292 28.9997 14.3397 28.9997C14.1459 22.5793 13.9851 19.6433 11.6985 17.3015C9.35678 15.0148 6.42065 14.854 0 14.6603ZM14.3401 0C8.36328 0.000568121 4.22188 0.0204525 2.09606 2.09637C0.0202591 4.2217 0.000370613 8.5576 0.000370613 14.34C6.42101 14.1462 9.35714 13.9854 11.6989 11.6987C13.9855 9.35697 14.1463 6.4209 14.3401 0ZM17.3014 11.6987C15.0148 9.35697 14.854 6.4209 14.6602 0C20.6371 0.000568121 24.7778 0.0204525 26.9036 2.09637C28.9794 4.2217 28.9993 8.5576 28.9999 14.34C22.5793 14.1462 19.6431 13.9854 17.3014 11.6987Z" fill="currentColor"/>
        <path fill-rule="evenodd" clip-rule="evenodd" d="M28.9999 14.6608V14.5006V14.3409C22.5793 14.1466 19.6431 13.9864 17.3014 11.6992C15.0148 9.3579 14.854 6.42189 14.6602 0.000976562H14.4999H14.3397C14.146 6.42189 13.9851 9.3579 11.6985 11.6992C9.35673 13.9864 6.4206 14.1466 0 14.3409V14.5006V14.6608C6.4206 14.855 9.35673 15.0153 11.6985 17.302C13.9851 19.6438 14.146 22.5798 14.3397 29.0007H14.4999H14.6602C14.854 22.5798 15.0148 19.6438 17.3014 17.302C19.6431 15.0153 22.5793 14.855 28.9999 14.6608Z" fill="white"/>
    </g>
</symbol>
<symbol id="i-help" viewBox="0 0 32 32" fill="white" xmlns="http://www.w3.org/2000/svg">
    <path d="M15.9999 27.4286C22.3117 27.4286 27.4284 22.3118 27.4284 16C27.4284 9.68816 22.3117 4.57141 15.9999 4.57141C9.68804 4.57141 4.57129 9.68816 4.57129 16C4.57129 22.3118 9.68804 27.4286 15.9999 27.4286Z" stroke="currentColor" stroke-width="2" stroke-linecap="round" stroke-linejoin="round"/>
    <path d="M12.6738 12.5715C12.9425 11.8077 13.4729 11.1636 14.1709 10.7533C14.869 10.3431 15.6897 10.1931 16.4877 10.33C17.2858 10.4669 18.0096 10.8818 18.5311 11.5012C19.0525 12.1206 19.3379 12.9046 19.3367 13.7143C19.3367 16 15.9081 17.1429 15.9081 17.1429" stroke="currentColor" stroke-width="2" stroke-linecap="round" stroke-linejoin="round"/>
    <path d="M16.6431 21.7143C16.6431 22.0693 16.3553 22.3571 16.0003 22.3571C15.6452 22.3571 15.3574 22.0693 15.3574 21.7143C15.3574 21.3592 15.6452 21.0714 16.0003 21.0714C16.3553 21.0714 16.6431 21.3592 16.6431 21.7143Z" stroke="currentColor"/>
</symbol>
<symbol id="i-MIR" viewBox="0 0 111 32" fill="none" xmlns="http://www.w3.org/2000/svg">
    <g clip-path="url(#clip0)">
        <path d="M17.0909 7.56589C17.0909 5.84073 16.2331 4.49894 13.7291 4.49894H5.12756V14.8499H7.51559V11.2079H13.0336C14.2739 11.2079 14.5985 11.5574 14.5985 12.7526V14.8499H16.9866V12.3806C16.9866 11.1515 16.5345 10.4299 15.5375 10.1818C16.5692 9.85483 17.0909 8.87386 17.0909 7.56589ZM13.4045 9.03171H7.51559V6.6864H13.4161C14.2971 6.6864 14.7145 7.1487 14.7145 7.8365C14.7029 8.51304 14.3551 9.03171 13.4045 9.03171ZM109.459 17.1501H110.34V27.5011H107.952V20.1607L103.025 27.5011H100.278V17.1501H102.666V24.2311L106.259 18.8076C107.187 17.432 107.987 17.1501 109.459 17.1501ZM62.846 14.8499V12.6399C63.8197 12.6399 64.0516 12.0648 64.2602 10.148L64.9094 4.49894H73.4646V14.8499H71.0765V6.6864H66.9613L66.5439 10.6441C66.1846 14.0493 65.234 14.9739 62.846 14.8499ZM0.525391 32H21.5771V0H0.525391V32ZM2.82068 2.23256H19.2703V29.7674H2.82068V2.23256ZM14.5869 17.1501H16.975V27.5011H9.33559C6.27521 27.5011 5.11597 26.3848 5.11597 23.3968V17.1501H7.504V23.4644C7.504 24.7837 8.03725 25.3249 9.27763 25.3249H14.5869V17.1501ZM78.0899 11.3883H83.3645V14.8612H85.7525V4.49894H79.6201C76.6177 4.49894 75.7019 5.29951 75.7019 8.31008V14.8499H78.0899V11.3883ZM79.6201 6.6864H83.3645V9.23467H78.0899V8.32135C78.0899 7.13742 78.2406 6.6864 79.6201 6.6864ZM51.1493 11.0388V8.32135C51.1493 5.34461 52.0071 4.51022 55.0675 4.51022H61.3158V6.6864H54.9516C53.7112 6.6864 53.5373 6.88936 53.5373 8.2086V8.55814H59.5769V10.7118H53.5373V11.1741C53.5373 12.4933 53.7112 12.6963 54.9516 12.6963H61.4085V14.8724H55.0675C51.9955 14.8499 51.1493 13.993 51.1493 11.0388ZM106.607 4.49894H103.987C100.95 4.49894 100.069 5.33333 100.069 8.31008V11.0388C100.069 13.993 101.251 14.8499 104.289 14.8499H106.317C109.378 14.8499 110.537 13.993 110.537 11.0388V8.32135C110.525 5.33333 109.668 4.49894 106.607 4.49894ZM108.137 11.0388C108.137 12.358 107.848 12.6737 106.607 12.6737H103.987C102.747 12.6737 102.457 12.358 102.457 11.0388V8.32135C102.457 7.00212 102.747 6.6864 103.987 6.6864H106.607C107.848 6.6864 108.137 7.00212 108.137 8.32135V11.0388ZM67.2395 17.1501H73.7892V18.4355C73.7892 19.4729 73.6964 20.3298 73.4646 21.1078H71.4359V19.3263H67.2511C66.0107 19.3263 65.7209 19.642 65.7209 20.9612V23.6899C65.7209 25.0092 66.0107 25.3249 67.2511 25.3249H73.7892V27.5011H67.2395C64.2023 27.5011 63.3213 26.6441 63.3213 23.6899V20.9612C63.3213 17.9845 64.2023 17.1501 67.2395 17.1501ZM48.4598 4.49894H39.7656L39.2323 9.74207C38.9657 12.234 38.5831 12.6399 37.876 12.6399H37.7369V15.8196H40.009L40.1017 14.5004H47.1151L47.2079 15.8196H49.48V12.6061H48.483V4.49894H48.4598ZM41.8638 6.6864H46.0718V12.3693H40.9596C41.2842 11.8168 41.4233 11.0388 41.5276 10.0465L41.8638 6.6864ZM57.7221 17.1501H54.8936C51.8564 17.1501 50.9754 17.9845 50.9754 20.9612V23.6899C50.9754 26.6441 51.8564 27.5011 54.8936 27.5011H57.7221C60.7825 27.5011 61.6404 26.6441 61.6404 23.6899V20.9612C61.6404 17.9845 60.7825 17.1501 57.7221 17.1501ZM59.2523 23.6899C59.2523 25.0092 58.9625 25.3249 57.7221 25.3249H54.8936C53.6532 25.3249 53.3634 25.0092 53.3634 23.6899V20.9612C53.3634 19.642 53.6532 19.3263 54.8936 19.3263H57.7221C58.9625 19.3263 59.2523 19.642 59.2523 20.9612V23.6899ZM79.3883 17.1501H85.9612V18.4355C85.9612 19.4729 85.8684 20.3298 85.6366 21.1078H83.6079V19.3263H79.3883C78.1479 19.3263 77.8581 19.642 77.8581 20.9612V23.6899C77.8581 25.0092 78.1479 25.3249 79.3883 25.3249H85.9612V27.5011H79.3883C76.3511 27.5011 75.4701 26.6441 75.4701 23.6899V20.9612C75.4701 17.9845 76.3511 17.1501 79.3883 17.1501ZM34.6997 22.0324C35.2561 21.7054 35.7198 20.9951 35.7198 19.9013C35.7198 18.4919 34.8968 17.1501 32.4508 17.1501H26.2025V27.5011H32.6942C35.0475 27.5011 36.2067 26.3284 36.2067 24.4003C36.1951 23.1149 35.4416 22.3481 34.6997 22.0324ZM33.3434 20.2509C33.3434 20.8823 33.0188 21.2206 32.1957 21.2206H28.6021V19.3601H32.1957C33.0188 19.3601 33.3434 19.642 33.3434 20.2509ZM32.7174 25.3249H28.5905V23.3178H32.7174C33.5173 23.3178 33.8071 23.6899 33.8071 24.2875C33.8071 24.8964 33.5173 25.3249 32.7174 25.3249ZM95.664 4.49894H98.052V14.8499H95.664V10.7005H90.3894V14.8612H88.0014V4.49894H90.3894V8.51304H95.664V4.49894ZM29.7729 4.49894H36.2878V5.78436C36.2878 6.82171 36.1951 7.67865 35.9633 8.45666H33.9346V6.6864H29.7729C28.5326 6.6864 28.2427 7.00212 28.2427 8.32135V11.05C28.2427 12.3693 28.5326 12.685 29.7729 12.685H36.2878V14.8612H29.7729C26.7357 14.8612 25.8547 14.0042 25.8547 11.05V8.32135C25.8547 5.33333 26.7357 4.49894 29.7729 4.49894ZM97.171 17.1501H98.052V27.5011H95.664V20.1607L90.7372 27.5011H87.9898V17.1501H90.3778V24.2311L93.9715 18.8076C94.8989 17.432 95.6987 17.1501 97.171 17.1501ZM45.782 17.1501H38.8266V19.191L40.067 19.3601V27.5011H42.455V24.8288H45.782C48.5294 24.8288 49.4684 23.4757 49.4684 21.3897V20.5891C49.4684 18.6159 48.5758 17.1501 45.782 17.1501ZM47.1035 21.3108C47.1035 22.2805 46.721 22.6638 45.782 22.6638H42.455V19.3376H45.782C46.721 19.3376 47.1035 19.7999 47.1035 20.6906V21.3108Z" fill="black" fill-opacity="0.12"/>
    </g>
    <defs>
        <clipPath id="clip0">
            <rect width="110" height="32" fill="white" transform="translate(0.525391)"/>
        </clipPath>
    </defs>
</symbol>
<symbol id="i-thumbUp" viewBox="0 0 33 32" fill="none" xmlns="http://www.w3.org/2000/svg">
    <path d="M10.6067 27.4284H7.07101C6.44586 27.4284 5.84631 27.1876 5.40426 26.759C4.96221 26.3303 4.71387 25.7489 4.71387 25.1427V17.1427C4.71387 16.5365 4.96221 15.9551 5.40426 15.5265C5.84631 15.0978 6.44586 14.857 7.07101 14.857H10.6067M18.8567 12.5713V7.99986C18.8567 7.09055 18.4842 6.21848 17.8211 5.57549C17.1581 4.93251 16.2587 4.57129 15.321 4.57129L10.6067 14.857V27.4284H23.901C24.4695 27.4347 25.0211 27.2415 25.4543 26.8844C25.8874 26.5274 26.1729 26.0306 26.2582 25.4856L27.8846 15.1999C27.9359 14.8723 27.9131 14.5378 27.8178 14.2196C27.7225 13.9014 27.5571 13.6071 27.3328 13.357C27.1086 13.107 26.831 12.9072 26.5193 12.7715C26.2076 12.6359 25.8691 12.5675 25.5274 12.5713H18.8567Z" stroke="currentColor" stroke-width="2" stroke-linecap="round" stroke-linejoin="round"/>
</symbol>
<symbol id="i-thumbDown" viewBox="0 0 33 32" fill="none" xmlns="http://www.w3.org/2000/svg">
    <path d="M22.0184 4.5717H25.1652C25.8322 4.56026 26.4804 4.78671 26.9866 5.20807C27.4928 5.62942 27.8219 6.21634 27.9113 6.85742V14.8574C27.8219 15.4985 27.4928 16.0854 26.9866 16.5068C26.4804 16.9281 25.8322 17.1546 25.1652 17.1431H22.0184M13.7684 19.4288V24.0003C13.7684 24.9096 14.1409 25.7817 14.804 26.4246C15.4671 27.0676 16.3664 27.4288 17.3041 27.4288L22.0184 17.1431V4.5717H8.72413C8.15567 4.56547 7.60404 4.75867 7.17088 5.11569C6.73773 5.47272 6.45223 5.96952 6.36699 6.51456L4.74056 16.8003C4.68928 17.1279 4.71207 17.4624 4.80734 17.7806C4.90261 18.0988 5.06808 18.3931 5.2923 18.6431C5.51651 18.8931 5.79411 19.0929 6.10585 19.2286C6.41759 19.3643 6.75602 19.4326 7.0977 19.4288H13.7684Z" stroke="currentColor" stroke-width="2" stroke-linecap="round" stroke-linejoin="round"/>
</symbol>
<symbol id="i-chevronDown" viewBox="0 0 33 32" fill="none" xmlns="http://www.w3.org/2000/svg">
    <path d="M10.2856 17.1428L15.9999 22.8571L21.7142 17.1428" stroke="#787885" stroke-width="2" stroke-linecap="round" stroke-linejoin="round"/>
    <path d="M10.2856 9.14282L15.9999 14.8571L21.7142 9.14282" stroke="#787885" stroke-width="2" stroke-linecap="round" stroke-linejoin="round"/>
</symbol>
<symbol id="i-inst" viewBox="0 0 28 28" fill="none" xmlns="http://www.w3.org/2000/svg">
    <path id="svg_1" fill="#38ad4a" d="m22.717,28l-17.384,0c-2.956,0 -5.333,-2.377 -5.333,-5.283l0,-17.434c0,-2.906 2.377,-5.283 5.283,-5.283l17.434,0c2.906,0 5.283,2.377 5.283,5.283l0,17.434c0,2.906 -2.377,5.283 -5.283,5.283z"/>
    <path id="svg_2" d="m17.9529,6.44834l-7.90715,0c-2.18349,0 -3.95357,1.69026 -3.95357,3.77529l0,7.55061c0,2.08503 1.77008,3.77531 3.95357,3.77531l7.90715,0c2.18354,0 3.95361,-1.69028 3.95361,-3.77531l0,-7.55061c0,-2.08502 -1.77006,-3.77529 -3.95361,-3.77529z" stroke="white" stroke-width="2" stroke-linecap="round" stroke-linejoin="round" fill="#38ad4a"/>
    <path id="svg_3" d="m17.1623,13.52318c0.09755,0.62844 -0.01483,1.27022 -0.32123,1.83404c-0.3064,0.56389 -0.7912,1.02114 -1.38543,1.30675c-0.59423,0.28561 -1.26768,0.38504 -1.92451,0.28416c-0.65675,-0.10095 -1.26353,-0.39707 -1.73397,-0.84626c-0.47044,-0.44919 -0.78054,-1.02861 -0.88621,-1.65585c-0.10567,-0.62718 -0.00161,-1.27022 0.29748,-1.83767c0.29909,-0.56746 0.77799,-1.03039 1.36846,-1.32294c0.59054,-0.29261 1.26265,-0.39991 1.92068,-0.30675c0.67125,0.09507 1.29271,0.39376 1.77254,0.85194c0.47983,0.45818 0.79261,1.0516 0.89218,1.69259z" stroke="white" stroke-width="2" stroke-linecap="round" stroke-linejoin="round" fill="#38ad4a"/>
    <path id="svg_4" d="m19.19898,9.46851c0,0.22506 -0.19403,0.42472 -0.45528,0.42472c-0.26119,0 -0.45521,-0.19966 -0.45521,-0.42472c0,-0.22506 0.19403,-0.42472 0.45521,-0.42472c0.26125,0 0.45528,0.19966 0.45528,0.42472z" stroke="white" fill="#38ad4a"/>
</symbol>
</svg>