<?xml version="1.0" encoding="UTF-8"?>
<svg version="1.1" xmlns="http://www.w3.org/2000/svg" xmlns:xlink="http://www.w3.org/1999/xlink">
<defs>

</defs>

    <symbol id="title1" viewBox="0 0 390 40" xmlns="http://www.w3.org/2000/svg">
        <g>
            <g display="none" overflow="visible">
                <rect fill="url(#gridpattern)" stroke-width="0" y="1" x="1" height="480" width="640"/>
            </g>
        </g>
        <g>
            <g id="svg_19">
                <rect id="svg_18" height="14.26087" width="8" y="14.77854" x="350.84971" fill-opacity="null" stroke-opacity="null" stroke-width="0" stroke="null" fill="#ffffff"/>
                <rect id="svg_16" height="21.45455" width="320.36358" y="9.06057" x="33.96959" stroke-opacity="null" stroke-width="0" fill="#ffffff"/>
                <path stroke-width="0" fill-rule="evenodd" fill="#38ad4a" d="m15.79265,-0.22849c0.891,-0.321 0.366,-0.176 0,0m-9.996,11.655c3.278,5.087 7.146,11.087 8.595,13.333c1.449,2.246 4.012,6.221 5.695,8.834l3.061,4.75l3.942,0.044l3.943,0.045l-1.319,-2.045c-0.726,-1.124 -1.905,-2.944 -2.62,-4.044c-0.715,-1.1 -1.757,-2.713 -2.314,-3.584c-0.558,-0.871 -1.789,-2.783 -2.736,-4.25c-0.948,-1.466 -2.373,-3.679 -3.167,-4.916c-0.795,-1.238 -3.043,-4.725 -4.996,-7.75c-1.953,-3.025 -4.334,-6.719 -5.291,-8.209l-1.74,-2.708l-3.904,0c-2.147,0 -3.903,0.043 -3.903,0.094m16.223,0.281c0.237,0.337 7.015,10.806 12.167,18.792c1.094,1.696 2.717,4.208 3.607,5.583c0.889,1.375 2.462,3.813 3.496,5.417c1.033,1.604 2.521,3.91 3.306,5.125l1.429,2.208l167.636,0c92.2,0 167.636,-0.038 167.636,-0.084c0,-0.046 -1.512,-2.427 -3.36,-5.292c-1.848,-2.864 -4.448,-6.895 -5.778,-8.957c-1.33,-2.063 -3.145,-4.875 -4.033,-6.25c-3.445,-5.334 -8.969,-13.906 -9.909,-15.375l-0.986,-1.542l-167.738,0l-167.737,0l0.264,0.375m342.606,1.083c0.532,0.802 1.811,2.771 2.843,4.375c3.273,5.092 5.206,8.091 9.83,15.25c0.888,1.375 3.208,4.975 5.157,8c1.948,3.025 3.966,6.155 4.483,6.956l0.941,1.456l3.889,0.002l3.888,0.003l-0.384,-0.625c-0.398,-0.648 -8.848,-13.77 -16.717,-25.958c-2.485,-3.85 -5.079,-7.88 -5.764,-8.956l-1.245,-1.955l-3.944,-0.003l-3.944,-0.003l0.967,1.458m-359.924,-0.361c0.407,-0.799 0.42,-1.04364 0.367,-0.93m64.002,14.715c3.374,1.768 3.373,8.045 -0.001,9.828c-3.923,2.072 -7.864,-2.313 -6.363,-7.082c0.809,-2.572 4.036,-3.964 6.364,-2.746m17.271,0.17c2.61,1.53 3.118,6.445 0.904,8.754c-1.665,1.738 -4.679,1.787 -6.362,0.104c-2.007,-2.007 -1.857,-6.736 0.267,-8.448c1.358,-1.094 3.706,-1.28 5.191,-0.41m83.184,-0.347c2.906,0.871 3.997,6.083 1.861,8.884c-1.433,1.879 -4.661,2.094 -6.491,0.434c-0.374,-0.34 -0.459,-0.37 -0.374,-0.133c0.406,1.137 0.429,1.11 -0.945,1.11l-1.257,0l-0.251,-0.875c-0.138,-0.481 -0.302,-1.081 -0.363,-1.333c-0.111,-0.454 -0.125,-0.459 -1.488,-0.459l-1.375,0l-0.38,1.334l-0.379,1.333l-1.227,0c-0.675,0 -1.227,-0.031 -1.227,-0.068c0,-0.038 0.743,-2.344 1.651,-5.125l1.651,-5.057l1.299,0l1.3,0l1.411,4.303l1.412,4.304l0.654,-0.765l0.654,-0.765l0.564,0.495c1.359,1.193 3.072,0.757 3.653,-0.931l0.221,-0.641l-1.91,-0.047l-1.909,-0.047l0.05,-1.036l0.049,-1.037l1.792,-0.047c0.985,-0.026 1.791,-0.09 1.791,-0.141c0,-1.611 -2.403,-2.274 -3.763,-1.038c-0.344,0.312 -0.352,0.308 -1.044,-0.512l-0.698,-0.827l0.378,-0.357c1.109,-1.047 3.06,-1.444 4.69,-0.956m19.045,0.177c3.377,1.77 3.385,8.088 0.011,9.809c-4.33,2.209 -8.449,-3.123 -6.047,-7.828c1.061,-2.08 4.003,-3.045 6.036,-1.981m25.5,0c3.368,1.765 3.371,8.095 0.004,9.813c-1.649,0.841 -3.923,0.503 -5.2,-0.774c-1.946,-1.947 -1.929,-6.431 0.031,-8.286c1.185,-1.121 3.747,-1.495 5.165,-0.753m9.559,0.263c0,0.626 0.021,0.649 0.676,0.754c4.631,0.74 4.59,6.991 -0.051,7.836c-0.598,0.108 -0.625,0.142 -0.625,0.773l0,0.659l-1.083,0l-1.084,0l0,-0.655l0,-0.655l-0.894,-0.186c-4.618,-0.958 -4.099,-7.838 0.591,-7.838c0.243,0 0.303,-0.133 0.303,-0.666l0,-0.667l1.084,0l1.083,0l0,0.645m20.514,-0.209c1.336,0.78 1.776,2.678 0.915,3.946l-0.404,0.596l0.379,0.249c1.042,0.682 1.243,2.862 0.369,4.008c-1.344,1.761 -4.599,1.916 -6.731,0.32c-0.685,-0.512 -0.676,-0.639 0.116,-1.555l0.648,-0.75l0.391,0.367c1.436,1.349 3.803,1.06 3.803,-0.464c0,-0.705 -0.57,-0.986 -2,-0.986l-1.333,0l0,-1l0,-1l0.822,0c1.333,0 2.003,-0.357 2.008,-1.071c0.008,-0.981 -1.327,-1.224 -2.681,-0.487l-0.812,0.442l-0.377,-0.474c-0.974,-1.223 -0.959,-1.101 -0.211,-1.671c1.28,-0.977 3.828,-1.211 5.098,-0.47m35.607,-0.181c0.662,0.277 1.712,1.022 1.712,1.215c0,0.431 -1.311,1.674 -1.511,1.432c-1.54,-1.855 -3.905,-0.383 -3.905,2.431c0,2.784 1.856,4.042 3.735,2.532l0.631,-0.507l0.623,0.745c0.721,0.862 0.695,1.034 -0.257,1.724c-2.491,1.804 -6.139,0.515 -7.009,-2.477c-1.292,-4.441 2.257,-8.651 5.981,-7.095m10.848,0.119c0.167,0.877 -0.302,2.068 -0.786,1.997c-0.522,-0.076 -0.753,0.175 -1.59,1.735c-0.531,0.99 -0.613,0.729 1.064,3.382c0.613,0.969 1.285,2.043 1.492,2.387l0.378,0.625l-1.325,0l-1.324,0l-1.365,-2.167c-1.143,-1.814 -1.432,-2.166 -1.773,-2.166l-0.407,0l0,2.166l0,2.167l-1.25,0l-1.25,0l0,-5.167l0,-5.166l1.245,0l1.245,0l0.047,1.958c0.061,2.568 0.31,2.65 1.545,0.509c1.322,-2.294 1.752,-2.645 3.167,-2.586c0.642,0.027 0.844,0.102 0.887,0.326m52.068,-0.2c3.884,1.079 4.263,8.053 0.546,10.046c-1.486,0.797 -3.899,0.409 -5.152,-0.828c-1.994,-1.97 -1.849,-6.732 0.257,-8.43c1.107,-0.892 2.842,-1.206 4.349,-0.788m-297.455,1.678c0.341,0.927 0.771,2.146 0.957,2.708c0.186,0.563 0.392,1.083 0.458,1.157c0.066,0.073 0.563,-1.127 1.103,-2.667l0.983,-2.8l1.292,-0.049l1.292,-0.048l0,5.173l0,5.174l-1.163,0l-1.162,0l-0.046,-2.458l-0.046,-2.459l-0.569,1.584c-0.9,2.508 -0.913,2.527 -1.728,2.467l-0.695,-0.051l-0.754,-2.061l-0.754,-2.061l-0.046,2.52l-0.046,2.519l-1.079,0l-1.079,0l0,-5.167l0,-5.166l1.231,0l1.232,0l0.619,1.685m10.251,0.231l0,1.917l1.584,0l1.583,0l0,-1.917l0,-1.916l1.25,0l1.25,0l0,5.174l0,5.174l-1.208,-0.049l-1.209,-0.049l-0.046,-2.125l-0.047,-2.125l-1.578,0l-1.579,0l0,2.166l0,2.167l-1.166,0l-1.167,0l0,-5.167l0,-5.166l1.167,0l1.166,0l0,1.916m23.967,-0.875l-0.05,1.042l-2.042,0.047l-2.041,0.047l0,4.085l0,4.086l-1.209,-0.049l-1.208,-0.049l-0.044,-5.125l-0.044,-5.125l3.344,0l3.343,0l-0.049,1.041m12.867,3.042l0,4.083l1.5,0l1.5,0l0,-4.083l0,-4.083l1.166,0l1.167,0l0,4.083l0,4.083l0.583,0c0.677,0 0.674,-0.023 0.475,3.224l-0.109,1.776l-1.058,0l-1.058,0l0,-1.416l0,-1.417l-3.25,0l-3.25,0l0,-5.167l0,-5.166l1.167,0l1.167,0l0,4.083m13.666,-3l0,1.083l-2,0l-2,0l0,0.828l0,0.827l1.709,0.048l1.708,0.047l0.05,1.042l0.049,1.042l-1.758,0l-1.758,0l0,1.083l0,1.083l2.084,0l2.083,0l0,0.611c0,0.714 0.157,0.643 0.319,-0.144c0.097,-0.474 0.173,-0.543 0.553,-0.498c0.772,0.092 1.111,-1.005 2.138,-6.927l0.21,-1.208l2.973,0l2.974,0l0,5.166l0,5.167l-1.25,0l-1.25,0l0,-4.083l0,-4.084l-0.739,0c-0.857,0 -0.797,-0.114 -1.183,2.25c-0.986,6.05 -1.002,6.063 -7.037,5.954l-4.375,-0.079l0,-5.146l0,-5.145l3.25,0l3.25,0l0,1.083m17.584,0l0,1l-2.042,0.047l-2.042,0.047l0,0.828l0,0.828l1.75,0l1.75,0l0,1.083l0,1.084l-1.75,0l-1.75,0l0,1.083l0,1.083l2.084,0l2.083,0l0,1.084l0,1.083l-3.333,0l-3.334,0l0,-5.17l0,-5.17l3.292,0.045l3.292,0.045l0,1m6.766,-0.891c1.849,0.627 2.574,2.844 1.368,4.177c-0.242,0.267 -0.217,0.341 0.325,0.941c1.485,1.644 0.671,4.1 -1.58,4.769c-0.587,0.174 -1.58,0.254 -3.16,0.254l-2.303,0l0,-5.167l0,-5.166l2.392,0c1.367,0 2.635,0.082 2.958,0.192m5.984,1.617l0,1.809l1.144,0.096c3.092,0.259 4.543,2.357 3.314,4.791c-0.723,1.431 -1.766,1.826 -4.833,1.827l-2.125,0.001l0,-5.167l0,-5.166l1.25,0l1.25,0l0,1.809m8,3.357l0,5.167l-1.167,0l-1.167,0l0,-5.167l0,-5.166l1.167,0l1.167,0l0,5.166m8.299,-4.125l-0.049,1.042l-2.042,0.047l-2.042,0.047l0,0.828l0,0.828l1.75,0l1.75,0l0,1.083l0,1.084l-1.75,0l-1.75,0l0,1.083l0,1.083l2.167,0l2.167,0l0,1.087l0,1.087l-3.375,-0.045l-3.375,-0.045l-0.045,-4.915c-0.024,-2.703 -0.008,-5.009 0.037,-5.125c0.061,-0.159 0.871,-0.21 3.344,-0.21l3.263,0l-0.05,1.041m26.583,-0.777c3.746,1.276 2.422,6.155 -1.767,6.51l-1.282,0.108l0,1.725l0,1.726l-1.167,0l-1.166,0l0,-5.167l0,-5.166l2.303,0c1.665,0 2.519,0.073 3.079,0.264m19.751,0.777l-0.05,1.042l-2.042,0.047l-2.041,0.047l0,4.078l0,4.078l-1.167,0l-1.167,0l0,-5.167l0,-5.166l3.258,0l3.258,0l-0.049,1.041m7.533,0.042l0,1.083l-2.083,0l-2.083,0l0,0.834l0,0.833l1.75,0l1.75,0l0,1.083l0,1.084l-1.75,0l-1.75,0l0,1.083l0,1.083l2.166,0l2.167,0l0,1.084l0,1.083l-3.333,0l-3.334,0l0,-5.167l0,-5.166l3.25,0l3.25,0l0,1.083m24.871,1.843l0.046,2.927l1.607,-2.885l1.607,-2.885l1.271,-0.049l1.27,-0.048l-0.044,5.132l-0.044,5.132l-1.205,0.049l-1.204,0.048l-0.046,-2.905l-0.045,-2.906l-1.585,2.857l-1.584,2.857l-1.207,0.049l-1.208,0.049l0,-5.174l0,-5.174l1.163,0l1.163,0l0.045,2.926m18.167,-0.03l0.046,2.897l1.599,-2.855l1.6,-2.855l1.192,-0.049l1.192,-0.049l0,5.174l0,5.174l-1.163,0l-1.163,0l-0.045,-2.911l-0.046,-2.91l-1.606,2.869l-1.606,2.869l-1.186,0.049l-1.185,0.049l0,-5.174l0,-5.174l1.163,0l1.163,0l0.045,2.896m9.489,-1.168c0.081,2.197 0.656,2.827 2.284,2.501l0.523,-0.104l0,-2.063l0,-2.062l1.25,0l1.25,0l0,5.166l0,5.167l-1.25,0l-1.25,0l0,-2l0,-2l-1.106,0c-3.02,0 -4.061,-1.204 -4.061,-4.697l0,-1.636l1.148,0l1.148,0l0.064,1.728m13.606,-0.687l-0.049,1.042l-2.042,0.047l-2.042,0.047l0,0.828l0,0.828l1.75,0l1.75,0l0,1.083l0,1.084l-1.75,0l-1.75,0l0,1.083l0,1.083l2.084,0l2.083,0l0,1.087l0,1.087l-3.292,-0.045l-3.291,-0.045l-0.044,-5.125l-0.044,-5.125l3.343,0l3.344,0l-0.05,1.041m21.238,1.862l0.046,2.903l1.601,-2.862l1.601,-2.861l1.191,-0.049l1.19,-0.049l0,5.174l0,5.174l-1.162,0l-1.163,0l-0.046,-2.903l-0.045,-2.904l-1.596,2.862l-1.596,2.862l-1.196,0.049l-1.196,0.049l0,-5.174l0,-5.174l1.163,0l1.163,0l0.045,2.903m13.963,-1.82l0,1.083l-2.084,0l-2.083,0l0,0.834l0,0.833l1.75,0l1.75,0l0,1.078l0,1.077l-1.708,0.048l-1.709,0.047l-0.049,1.042l-0.05,1.041l2.175,0l2.174,0l0,1.084l0,1.083l-3.333,0l-3.333,0l0,-5.167l0,-5.166l3.25,0l3.25,0l0,1.083m9.583,-0.899c1.548,0.423 2.25,1.419 2.25,3.194c0,2.067 -1.236,3.186 -3.753,3.399l-1.247,0.105l0,1.733l0,1.733l-1.208,-0.049l-1.209,-0.049l-0.044,-4.915c-0.024,-2.703 -0.008,-5.009 0.037,-5.125c0.103,-0.27 4.205,-0.291 5.174,-0.026m8.851,4.774c0.888,2.727 1.65,5.055 1.694,5.174c0.062,0.168 -0.213,0.205 -1.229,0.167l-1.31,-0.049l-0.339,-1.25l-0.34,-1.25l-1.363,-0.049l-1.363,-0.048l-0.342,1.15c-0.188,0.632 -0.342,1.235 -0.342,1.34c0,0.125 -0.424,0.19 -1.25,0.19c-0.75,0 -1.25,-0.069 -1.25,-0.172c0,-0.095 0.558,-1.876 1.24,-3.959c0.682,-2.082 1.413,-4.329 1.625,-4.992l0.385,-1.207l1.285,-0.002l1.286,-0.001l1.613,4.958m9.066,-3.875l0,1.083l-2.25,0l-2.25,0l0,0.812l0,0.812l1.458,0.115c2.553,0.2 3.7,1.142 3.706,3.042c0.008,2.533 -1.343,3.386 -5.361,3.386l-2.303,0l0,-5.167l0,-5.166l3.5,0l3.5,0l0,1.083m18.5,0l0,1.083l-1.331,0l-1.33,0l-0.045,4.042l-0.044,4.042l-1.209,0.049l-1.208,0.049l0,-4.084l0,-4.084l-1.375,-0.049l-1.375,-0.048l-0.05,-1.042l-0.049,-1.041l4.008,0l4.008,0l0,1.083m3.333,0.726l0,1.809l1.262,0.096c2.809,0.212 4.22,1.885 3.565,4.224c-0.5,1.785 -1.8,2.395 -5.107,2.395l-2.053,0l0,-5.167l0,-5.166l1.166,0l1.167,0l0,1.809m8.127,3.316l-0.044,5.125l-1.208,0.049l-1.208,0.049l0,-5.174l0,-5.174l1.252,0l1.252,0l-0.044,5.125m-299.541,-2.578c-1.356,1.356 -1.053,4.83 0.485,5.564c1.705,0.813 3.074,-0.84 2.887,-3.485c-0.166,-2.345 -1.985,-3.466 -3.372,-2.079m17.22,-0.172c-1.933,1.629 -1.08,5.958 1.173,5.958c2.134,0 2.849,-5.052 0.86,-6.081c-0.705,-0.364 -1.512,-0.315 -2.033,0.123m44.527,0.625l0,1l0.589,0c1.027,0 1.745,-0.404 1.745,-0.982c0,-0.669 -0.528,-1.018 -1.537,-1.018l-0.797,0l0,1m48.778,-0.889c-0.061,0.061 -0.111,0.661 -0.111,1.333l0,1.222l0.969,0c1.412,0 2.219,-1.089 1.567,-2.114c-0.275,-0.432 -2.101,-0.765 -2.425,-0.441m8.975,0.436c-1.356,1.356 -1.053,4.83 0.485,5.564c1.701,0.811 3.074,-0.84 2.888,-3.47c-0.168,-2.37 -1.975,-3.492 -3.373,-2.094m25.594,-0.116c-0.683,0.574 -1.092,1.954 -0.947,3.192c0.477,4.053 4.486,3.353 4.237,-0.74c-0.151,-2.476 -1.801,-3.705 -3.29,-2.452m103.82,0.879l0,1.356l0.894,0c2.423,0 2.532,-2.402 0.118,-2.621l-1.012,-0.092l0,1.357m25.462,-0.935c-1.405,1.155 -1.285,4.801 0.185,5.67c1.61,0.951 3.025,-0.487 3.016,-3.065c-0.008,-2.392 -1.743,-3.804 -3.201,-2.605m-180.206,1.737c-0.151,0.534 -0.313,1.102 -0.36,1.263c-0.072,0.248 0.03,0.291 0.687,0.291c0.726,0 0.766,-0.022 0.653,-0.375c-0.066,-0.206 -0.216,-0.739 -0.334,-1.184c-0.293,-1.105 -0.332,-1.105 -0.646,0.005m60.911,-0.828c-1.676,0.613 -1.475,3.228 0.291,3.786c0.375,0.119 0.375,0.117 0.375,-1.892c0,-2.064 -0.023,-2.129 -0.666,-1.894m2.833,1.894c0,2.008 0.001,2.011 0.375,1.897c1.535,-0.465 1.904,-2.772 0.574,-3.583c-0.925,-0.564 -0.949,-0.52 -0.949,1.686m99.615,-1.845c-0.777,2.234 -0.775,2.333 0.052,2.333c0.425,0 0.664,-0.075 0.66,-0.208c-0.014,-0.502 -0.633,-2.351 -0.712,-2.125m-186.113,4.932c1.116,-0.148 1.254,-0.213 1.475,-0.699c0.467,-1.025 -0.146,-1.733 -1.499,-1.733l-0.811,0l0,1.271m194.5,-0.021l0,1.25l0.755,0c2.813,0 2.848,-2.424 0.036,-2.483l-0.791,-0.017l0,1.25m26.367,-0.042l0.049,1.209l0.8,-0.028c2.305,-0.08 2.295,-2.389 -0.011,-2.389l-0.887,0l0.049,1.208m-229.701,0.148l0,1.19l1.092,-0.088c2.517,-0.202 2.476,-2.291 -0.045,-2.291l-1.047,0l0,1.189m272.873,18.253" id="svg_7"/>
                <path d="m36.1803,39.05187c0,0.95236 0.78929,1.2139 0.95238,1.90475c0.07294,0.30896 0.29462,1.14633 0.95238,1.90475c0.46512,0.53629 0.68988,0.90564 0.95239,1.26984c0.41507,0.57587 0.21881,-0.34293 0,-1.26984c-0.16309,-0.69086 -0.74208,-1.05081 -1.26985,-1.90475c-0.47206,-0.76379 -1.08534,-0.76791 -1.5873,-1.26984c-0.50195,-0.50195 -0.95238,-0.95239 -0.95238,-1.58731l-0.31746,0l0,-0.31747" id="svg_14" stroke-width="0" stroke="#000" fill="none"/>
            </g>
        </g>
    </symbol>
</svg>