<svg width="20" height="20" viewBox="0 0 20 20" fill="none" xmlns="http://www.w3.org/2000/svg">
<path d="M10.8333 5.00003C10.8333 5.46024 10.4602 5.83331 10 5.83331C9.53979 5.83331 9.16672 5.46024 9.16672 5.00003C9.16672 4.53983 9.53979 4.16675 10 4.16675C10.4602 4.16675 10.8333 4.53983 10.8333 5.00003Z" fill="white"/>
<path d="M10 15.8333C9.655 15.8333 9.375 15.5533 9.375 15.2083V8.75H8.54172C8.19672 8.75 7.91672 8.47 7.91672 8.125C7.91672 7.78 8.19672 7.5 8.54172 7.5H10C10.345 7.5 10.625 7.78 10.625 8.125V15.2083C10.625 15.5533 10.345 15.8333 10 15.8333Z" fill="white"/>
<path d="M10 20C4.48578 20 0 15.5142 0 10C0 4.48578 4.48578 0 10 0C15.5142 0 20 4.48578 20 10C20 15.5142 15.5142 20 10 20ZM10 1.25C5.17502 1.25 1.25 5.17502 1.25 10C1.25 14.825 5.17502 18.75 10 18.75C14.825 18.75 18.75 14.825 18.75 10C18.75 5.17502 14.825 1.25 10 1.25Z" fill="white"/>
<path d="M11.875 15.8333H8.125C7.78 15.8333 7.5 15.5533 7.5 15.2083C7.5 14.8633 7.78 14.5833 8.125 14.5833H11.875C12.22 14.5833 12.5 14.8633 12.5 15.2083C12.5 15.5533 12.22 15.8333 11.875 15.8333Z" fill="white"/>
</svg>
