<svg width="20" height="20" viewBox="0 0 20 20" fill="none" xmlns="http://www.w3.org/2000/svg">
<path d="M16.4284 8.57142C16.4284 13.5714 9.99986 17.8571 9.99986 17.8571C9.99986 17.8571 3.57129 13.5714 3.57129 8.57142C3.57129 6.86646 4.24858 5.23133 5.45417 4.02574C6.65977 2.82015 8.2949 2.14285 9.99986 2.14285C11.7048 2.14285 13.34 2.82015 14.5455 4.02574C15.7511 5.23133 16.4284 6.86646 16.4284 8.57142Z" stroke="#38AD4A" stroke-linecap="round" stroke-linejoin="round"/>
<path d="M9.99979 10.7143C11.1833 10.7143 12.1426 9.75488 12.1426 8.57142C12.1426 7.38795 11.1833 6.42856 9.99979 6.42856C8.81632 6.42856 7.85693 7.38795 7.85693 8.57142C7.85693 9.75488 8.81632 10.7143 9.99979 10.7143Z" stroke="#38AD4A" stroke-linecap="round" stroke-linejoin="round"/>
</svg>
