<svg width="111" height="32" viewBox="0 0 111 32" fill="none" xmlns="http://www.w3.org/2000/svg">
<g clip-path="url(#clip0)">
<path d="M17.0909 7.56589C17.0909 5.84073 16.2331 4.49894 13.7291 4.49894H5.12756V14.8499H7.51559V11.2079H13.0336C14.2739 11.2079 14.5985 11.5574 14.5985 12.7526V14.8499H16.9866V12.3806C16.9866 11.1515 16.5345 10.4299 15.5375 10.1818C16.5692 9.85483 17.0909 8.87386 17.0909 7.56589ZM13.4045 9.03171H7.51559V6.6864H13.4161C14.2971 6.6864 14.7145 7.1487 14.7145 7.8365C14.7029 8.51304 14.3551 9.03171 13.4045 9.03171ZM109.459 17.1501H110.34V27.5011H107.952V20.1607L103.025 27.5011H100.278V17.1501H102.666V24.2311L106.259 18.8076C107.187 17.432 107.987 17.1501 109.459 17.1501ZM62.846 14.8499V12.6399C63.8197 12.6399 64.0516 12.0648 64.2602 10.148L64.9094 4.49894H73.4646V14.8499H71.0765V6.6864H66.9613L66.5439 10.6441C66.1846 14.0493 65.234 14.9739 62.846 14.8499ZM0.525391 32H21.5771V0H0.525391V32ZM2.82068 2.23256H19.2703V29.7674H2.82068V2.23256ZM14.5869 17.1501H16.975V27.5011H9.33559C6.27521 27.5011 5.11597 26.3848 5.11597 23.3968V17.1501H7.504V23.4644C7.504 24.7837 8.03725 25.3249 9.27763 25.3249H14.5869V17.1501ZM78.0899 11.3883H83.3645V14.8612H85.7525V4.49894H79.6201C76.6177 4.49894 75.7019 5.29951 75.7019 8.31008V14.8499H78.0899V11.3883ZM79.6201 6.6864H83.3645V9.23467H78.0899V8.32135C78.0899 7.13742 78.2406 6.6864 79.6201 6.6864ZM51.1493 11.0388V8.32135C51.1493 5.34461 52.0071 4.51022 55.0675 4.51022H61.3158V6.6864H54.9516C53.7112 6.6864 53.5373 6.88936 53.5373 8.2086V8.55814H59.5769V10.7118H53.5373V11.1741C53.5373 12.4933 53.7112 12.6963 54.9516 12.6963H61.4085V14.8724H55.0675C51.9955 14.8499 51.1493 13.993 51.1493 11.0388ZM106.607 4.49894H103.987C100.95 4.49894 100.069 5.33333 100.069 8.31008V11.0388C100.069 13.993 101.251 14.8499 104.289 14.8499H106.317C109.378 14.8499 110.537 13.993 110.537 11.0388V8.32135C110.525 5.33333 109.668 4.49894 106.607 4.49894ZM108.137 11.0388C108.137 12.358 107.848 12.6737 106.607 12.6737H103.987C102.747 12.6737 102.457 12.358 102.457 11.0388V8.32135C102.457 7.00212 102.747 6.6864 103.987 6.6864H106.607C107.848 6.6864 108.137 7.00212 108.137 8.32135V11.0388ZM67.2395 17.1501H73.7892V18.4355C73.7892 19.4729 73.6964 20.3298 73.4646 21.1078H71.4359V19.3263H67.2511C66.0107 19.3263 65.7209 19.642 65.7209 20.9612V23.6899C65.7209 25.0092 66.0107 25.3249 67.2511 25.3249H73.7892V27.5011H67.2395C64.2023 27.5011 63.3213 26.6441 63.3213 23.6899V20.9612C63.3213 17.9845 64.2023 17.1501 67.2395 17.1501ZM48.4598 4.49894H39.7656L39.2323 9.74207C38.9657 12.234 38.5831 12.6399 37.876 12.6399H37.7369V15.8196H40.009L40.1017 14.5004H47.1151L47.2079 15.8196H49.48V12.6061H48.483V4.49894H48.4598ZM41.8638 6.6864H46.0718V12.3693H40.9596C41.2842 11.8168 41.4233 11.0388 41.5276 10.0465L41.8638 6.6864ZM57.7221 17.1501H54.8936C51.8564 17.1501 50.9754 17.9845 50.9754 20.9612V23.6899C50.9754 26.6441 51.8564 27.5011 54.8936 27.5011H57.7221C60.7825 27.5011 61.6404 26.6441 61.6404 23.6899V20.9612C61.6404 17.9845 60.7825 17.1501 57.7221 17.1501ZM59.2523 23.6899C59.2523 25.0092 58.9625 25.3249 57.7221 25.3249H54.8936C53.6532 25.3249 53.3634 25.0092 53.3634 23.6899V20.9612C53.3634 19.642 53.6532 19.3263 54.8936 19.3263H57.7221C58.9625 19.3263 59.2523 19.642 59.2523 20.9612V23.6899ZM79.3883 17.1501H85.9612V18.4355C85.9612 19.4729 85.8684 20.3298 85.6366 21.1078H83.6079V19.3263H79.3883C78.1479 19.3263 77.8581 19.642 77.8581 20.9612V23.6899C77.8581 25.0092 78.1479 25.3249 79.3883 25.3249H85.9612V27.5011H79.3883C76.3511 27.5011 75.4701 26.6441 75.4701 23.6899V20.9612C75.4701 17.9845 76.3511 17.1501 79.3883 17.1501ZM34.6997 22.0324C35.2561 21.7054 35.7198 20.9951 35.7198 19.9013C35.7198 18.4919 34.8968 17.1501 32.4508 17.1501H26.2025V27.5011H32.6942C35.0475 27.5011 36.2067 26.3284 36.2067 24.4003C36.1951 23.1149 35.4416 22.3481 34.6997 22.0324ZM33.3434 20.2509C33.3434 20.8823 33.0188 21.2206 32.1957 21.2206H28.6021V19.3601H32.1957C33.0188 19.3601 33.3434 19.642 33.3434 20.2509ZM32.7174 25.3249H28.5905V23.3178H32.7174C33.5173 23.3178 33.8071 23.6899 33.8071 24.2875C33.8071 24.8964 33.5173 25.3249 32.7174 25.3249ZM95.664 4.49894H98.052V14.8499H95.664V10.7005H90.3894V14.8612H88.0014V4.49894H90.3894V8.51304H95.664V4.49894ZM29.7729 4.49894H36.2878V5.78436C36.2878 6.82171 36.1951 7.67865 35.9633 8.45666H33.9346V6.6864H29.7729C28.5326 6.6864 28.2427 7.00212 28.2427 8.32135V11.05C28.2427 12.3693 28.5326 12.685 29.7729 12.685H36.2878V14.8612H29.7729C26.7357 14.8612 25.8547 14.0042 25.8547 11.05V8.32135C25.8547 5.33333 26.7357 4.49894 29.7729 4.49894ZM97.171 17.1501H98.052V27.5011H95.664V20.1607L90.7372 27.5011H87.9898V17.1501H90.3778V24.2311L93.9715 18.8076C94.8989 17.432 95.6987 17.1501 97.171 17.1501ZM45.782 17.1501H38.8266V19.191L40.067 19.3601V27.5011H42.455V24.8288H45.782C48.5294 24.8288 49.4684 23.4757 49.4684 21.3897V20.5891C49.4684 18.6159 48.5758 17.1501 45.782 17.1501ZM47.1035 21.3108C47.1035 22.2805 46.721 22.6638 45.782 22.6638H42.455V19.3376H45.782C46.721 19.3376 47.1035 19.7999 47.1035 20.6906V21.3108Z" fill="black" fill-opacity="0.12"/>
</g>
<defs>
<clipPath id="clip0">
<rect width="110" height="32" fill="white" transform="translate(0.525391)"/>
</clipPath>
</defs>
</svg>
